<svg width="55" height="55" viewBox="0 0 55 55" fill="none" xmlns="http://www.w3.org/2000/svg">
<g clip-path="url(#clip0_435_253)">
<path d="M50.4167 5.5H45.8333V3.66667C45.8333 2.69421 45.447 1.76158 44.7594 1.07394C44.0718 0.386308 43.1391 0 42.1667 0C41.1942 0 40.2616 0.386308 39.5739 1.07394C38.8863 1.76158 38.5 2.69421 38.5 3.66667V5.5H31.1667V3.66667C31.1667 2.69421 30.7804 1.76158 30.0927 1.07394C29.4051 0.386308 28.4725 0 27.5 0C26.5275 0 25.5949 0.386308 24.9073 1.07394C24.2196 1.76158 23.8333 2.69421 23.8333 3.66667V5.5H16.5V3.66667C16.5 2.69421 16.1137 1.76158 15.4261 1.07394C14.7384 0.386308 13.8058 0 12.8333 0C11.8609 0 10.9282 0.386308 10.2406 1.07394C9.55297 1.76158 9.16667 2.69421 9.16667 3.66667V5.5H4.58333C3.36776 5.5 2.20197 5.98289 1.34243 6.84243C0.482886 7.70197 0 8.86776 0 10.0833V46.75C0 47.9656 0.482886 49.1314 1.34243 49.9909C2.20197 50.8504 3.36776 51.3333 4.58333 51.3333H30.25C30.4931 51.3333 30.7263 51.2368 30.8982 51.0648C31.0701 50.8929 31.1667 50.6598 31.1667 50.4167C31.1667 50.1736 31.0701 49.9404 30.8982 49.7685C30.7263 49.5966 30.4931 49.5 30.25 49.5H4.58333C3.85466 49.4978 3.15645 49.2074 2.64119 48.6921C2.12594 48.1769 1.83551 47.4787 1.83333 46.75V18.3333H53.1667V33.9167C53.1667 34.1598 53.2632 34.3929 53.4352 34.5648C53.6071 34.7368 53.8402 34.8333 54.0833 34.8333C54.3265 34.8333 54.5596 34.7368 54.7315 34.5648C54.9034 34.3929 55 34.1598 55 33.9167V10.0833C55 8.86776 54.5171 7.70197 53.6576 6.84243C52.798 5.98289 51.6322 5.5 50.4167 5.5ZM40.3333 3.66667C40.3333 3.18044 40.5265 2.71412 40.8703 2.3703C41.2141 2.02649 41.6804 1.83333 42.1667 1.83333C42.6529 1.83333 43.1192 2.02649 43.463 2.3703C43.8068 2.71412 44 3.18044 44 3.66667V9.16667C44 9.6529 43.8068 10.1192 43.463 10.463C43.1192 10.8068 42.6529 11 42.1667 11C41.6804 11 41.2141 10.8068 40.8703 10.463C40.5265 10.1192 40.3333 9.6529 40.3333 9.16667V3.66667ZM25.6667 3.66667C25.6667 3.18044 25.8598 2.71412 26.2036 2.3703C26.5475 2.02649 27.0138 1.83333 27.5 1.83333C27.9862 1.83333 28.4525 2.02649 28.7964 2.3703C29.1402 2.71412 29.3333 3.18044 29.3333 3.66667V9.16667C29.3333 9.6529 29.1402 10.1192 28.7964 10.463C28.4525 10.8068 27.9862 11 27.5 11C27.0138 11 26.5475 10.8068 26.2036 10.463C25.8598 10.1192 25.6667 9.6529 25.6667 9.16667V3.66667ZM11 3.66667C11 3.18044 11.1932 2.71412 11.537 2.3703C11.8808 2.02649 12.3471 1.83333 12.8333 1.83333C13.3196 1.83333 13.7859 2.02649 14.1297 2.3703C14.4735 2.71412 14.6667 3.18044 14.6667 3.66667V9.16667C14.6667 9.6529 14.4735 10.1192 14.1297 10.463C13.7859 10.8068 13.3196 11 12.8333 11C12.3471 11 11.8808 10.8068 11.537 10.463C11.1932 10.1192 11 9.6529 11 9.16667V3.66667ZM53.1667 16.5H1.83333V10.0833C1.83551 9.35466 2.12594 8.65645 2.64119 8.14119C3.15645 7.62594 3.85466 7.33551 4.58333 7.33333H9.16667V9.16667C9.16667 10.1391 9.55297 11.0718 10.2406 11.7594C10.9282 12.447 11.8609 12.8333 12.8333 12.8333C13.8058 12.8333 14.7384 12.447 15.4261 11.7594C16.1137 11.0718 16.5 10.1391 16.5 9.16667V7.33333H23.8333V9.16667C23.8333 10.1391 24.2196 11.0718 24.9073 11.7594C25.5949 12.447 26.5275 12.8333 27.5 12.8333C28.4725 12.8333 29.4051 12.447 30.0927 11.7594C30.7804 11.0718 31.1667 10.1391 31.1667 9.16667V7.33333H38.5V9.16667C38.5 10.1391 38.8863 11.0718 39.5739 11.7594C40.2616 12.447 41.1942 12.8333 42.1667 12.8333C43.1391 12.8333 44.0718 12.447 44.7594 11.7594C45.447 11.0718 45.8333 10.1391 45.8333 9.16667V7.33333H50.4167C51.1453 7.33551 51.8436 7.62594 52.3588 8.14119C52.8741 8.65645 53.1645 9.35466 53.1667 10.0833V16.5Z" fill="url(#paint0_linear_435_253)"/>
<path d="M25.6668 24.7501C25.6668 24.2639 25.4737 23.7975 25.1299 23.4537C24.786 23.1099 24.3197 22.9167 23.8335 22.9167H20.1668C19.6806 22.9167 19.2143 23.1099 18.8705 23.4537C18.5267 23.7975 18.3335 24.2639 18.3335 24.7501V27.5001C18.3335 27.9863 18.5267 28.4526 18.8705 28.7964C19.2143 29.1403 19.6806 29.3334 20.1668 29.3334H23.8335C24.3197 29.3334 24.786 29.1403 25.1299 28.7964C25.4737 28.4526 25.6668 27.9863 25.6668 27.5001V24.7501ZM20.1668 27.5001V24.7501H23.8335V27.5001H20.1668Z" fill="url(#paint1_linear_435_253)"/>
<path d="M14.6668 24.7501C14.6668 24.2639 14.4737 23.7975 14.1299 23.4537C13.786 23.1099 13.3197 22.9167 12.8335 22.9167H9.16683C8.6806 22.9167 8.21428 23.1099 7.87047 23.4537C7.52665 23.7975 7.3335 24.2639 7.3335 24.7501V27.5001C7.3335 27.9863 7.52665 28.4526 7.87047 28.7964C8.21428 29.1403 8.6806 29.3334 9.16683 29.3334H12.8335C13.3197 29.3334 13.786 29.1403 14.1299 28.7964C14.4737 28.4526 14.6668 27.9863 14.6668 27.5001V24.7501ZM9.16683 27.5001V24.7501H12.8335V27.5001H9.16683Z" fill="url(#paint2_linear_435_253)"/>
<path d="M45.8335 29.3334C46.3197 29.3334 46.786 29.1403 47.1299 28.7964C47.4737 28.4526 47.6668 27.9863 47.6668 27.5001V24.7501C47.6668 24.2639 47.4737 23.7975 47.1299 23.4537C46.786 23.1099 46.3197 22.9167 45.8335 22.9167H42.1668C41.6806 22.9167 41.2143 23.1099 40.8705 23.4537C40.5266 23.7975 40.3335 24.2639 40.3335 24.7501V27.5001C40.3335 27.9863 40.5266 28.4526 40.8705 28.7964C41.2143 29.1403 41.6806 29.3334 42.1668 29.3334H45.8335ZM42.1668 24.7501H45.8335V27.5001H42.1668V24.7501Z" fill="url(#paint3_linear_435_253)"/>
<path d="M25.6668 33.0001C25.6668 32.5139 25.4737 32.0475 25.1299 31.7037C24.786 31.3599 24.3197 31.1667 23.8335 31.1667H20.1668C19.6806 31.1667 19.2143 31.3599 18.8705 31.7037C18.5267 32.0475 18.3335 32.5139 18.3335 33.0001V35.7501C18.3335 36.2363 18.5267 36.7026 18.8705 37.0464C19.2143 37.3903 19.6806 37.5834 20.1668 37.5834H23.8335C24.3197 37.5834 24.786 37.3903 25.1299 37.0464C25.4737 36.7026 25.6668 36.2363 25.6668 35.7501V33.0001ZM20.1668 35.7501V33.0001H23.8335V35.7501H20.1668Z" fill="url(#paint4_linear_435_253)"/>
<path d="M14.6668 33.0001C14.6668 32.5139 14.4737 32.0475 14.1299 31.7037C13.786 31.3599 13.3197 31.1667 12.8335 31.1667H9.16683C8.6806 31.1667 8.21428 31.3599 7.87047 31.7037C7.52665 32.0475 7.3335 32.5139 7.3335 33.0001V35.7501C7.3335 36.2363 7.52665 36.7026 7.87047 37.0464C8.21428 37.3903 8.6806 37.5834 9.16683 37.5834H12.8335C13.3197 37.5834 13.786 37.3903 14.1299 37.0464C14.4737 36.7026 14.6668 36.2363 14.6668 35.7501V33.0001ZM9.16683 35.7501V33.0001H12.8335V35.7501H9.16683Z" fill="url(#paint5_linear_435_253)"/>
<path d="M23.8335 39.4167H20.1668C19.6806 39.4167 19.2143 39.6099 18.8705 39.9537C18.5267 40.2975 18.3335 40.7639 18.3335 41.2501V44.0001C18.3335 44.4863 18.5267 44.9526 18.8705 45.2964C19.2143 45.6403 19.6806 45.8334 20.1668 45.8334H23.8335C24.3197 45.8334 24.786 45.6403 25.1299 45.2964C25.4737 44.9526 25.6668 44.4863 25.6668 44.0001V41.2501C25.6668 40.7639 25.4737 40.2975 25.1299 39.9537C24.786 39.6099 24.3197 39.4167 23.8335 39.4167ZM20.1668 44.0001V41.2501H23.8335V44.0001H20.1668Z" fill="url(#paint6_linear_435_253)"/>
<path d="M31.1668 29.3334H34.8335C35.3197 29.3334 35.786 29.1403 36.1299 28.7964C36.4737 28.4526 36.6668 27.9863 36.6668 27.5001V24.7501C36.6668 24.2639 36.4737 23.7975 36.1299 23.4537C35.786 23.1099 35.3197 22.9167 34.8335 22.9167H31.1668C30.6806 22.9167 30.2143 23.1099 29.8705 23.4537C29.5266 23.7975 29.3335 24.2639 29.3335 24.7501V27.5001C29.3335 27.9863 29.5266 28.4526 29.8705 28.7964C30.2143 29.1403 30.6806 29.3334 31.1668 29.3334ZM31.1668 24.7501H34.8335V27.5001H31.1668V24.7501Z" fill="url(#paint7_linear_435_253)"/>
<path d="M29.3335 35.7501C29.3335 36.2363 29.5266 36.7026 29.8705 37.0464C30.2143 37.3903 30.6806 37.5834 31.1668 37.5834C31.4099 37.5834 31.6431 37.4868 31.815 37.3149C31.9869 37.143 32.0835 36.9099 32.0835 36.6667C32.0835 36.4236 31.9869 36.1905 31.815 36.0186C31.6431 35.8467 31.4099 35.7501 31.1668 35.7501V33.0001H34.8335C35.0766 33.0001 35.3098 32.9035 35.4817 32.7316C35.6536 32.5597 35.7502 32.3265 35.7502 32.0834C35.7502 31.8403 35.6536 31.6071 35.4817 31.4352C35.3098 31.2633 35.0766 31.1667 34.8335 31.1667H31.1668C30.6806 31.1667 30.2143 31.3599 29.8705 31.7037C29.5266 32.0475 29.3335 32.5139 29.3335 33.0001V35.7501Z" fill="url(#paint8_linear_435_253)"/>
<path d="M12.8335 39.4167H9.16683C8.6806 39.4167 8.21428 39.6099 7.87047 39.9537C7.52665 40.2975 7.3335 40.7639 7.3335 41.2501V44.0001C7.3335 44.4863 7.52665 44.9526 7.87047 45.2964C8.21428 45.6403 8.6806 45.8334 9.16683 45.8334H12.8335C13.3197 45.8334 13.786 45.6403 14.1299 45.2964C14.4737 44.9526 14.6668 44.4863 14.6668 44.0001V41.2501C14.6668 40.7639 14.4737 40.2975 14.1299 39.9537C13.786 39.6099 13.3197 39.4167 12.8335 39.4167ZM9.16683 44.0001V41.2501H12.8335V44.0001H9.16683Z" fill="url(#paint9_linear_435_253)"/>
<path d="M43.0832 31.1667C40.7263 31.1667 38.4223 31.8656 36.4626 33.1751C34.5029 34.4845 32.9756 36.3456 32.0736 38.5231C31.1717 40.7006 30.9357 43.0966 31.3955 45.4082C31.8553 47.7198 32.9902 49.8432 34.6568 51.5098C36.3234 53.1763 38.4467 54.3113 40.7584 54.7711C43.07 55.2309 45.466 54.9949 47.6435 54.093C49.821 53.191 51.6821 51.6636 52.9915 49.704C54.3009 47.7443 54.9998 45.4403 54.9998 43.0834C54.9962 39.924 53.7395 36.8951 51.5055 34.6611C49.2715 32.4271 46.2426 31.1704 43.0832 31.1667ZM43.0832 53.1667C41.0889 53.1667 39.1394 52.5754 37.4812 51.4674C35.823 50.3594 34.5306 48.7846 33.7674 46.9421C33.0042 45.0997 32.8045 43.0722 33.1936 41.1163C33.5827 39.1603 34.543 37.3636 35.9532 35.9534C37.3634 34.5432 39.16 33.5829 41.116 33.1938C43.072 32.8048 45.0994 33.0044 46.9419 33.7676C48.7844 34.5308 50.3592 35.8232 51.4672 37.4814C52.5751 39.1396 53.1665 41.0891 53.1665 43.0834C53.1634 45.7567 52.1 48.3196 50.2097 50.2099C48.3194 52.1002 45.7565 53.1636 43.0832 53.1667Z" fill="url(#paint10_linear_435_253)"/>
<path d="M48.3798 39.2407L41.25 46.3706L38.0095 43.1292C37.8367 42.9622 37.6051 42.8698 37.3648 42.8719C37.1244 42.874 36.8945 42.9704 36.7245 43.1404C36.5546 43.3103 36.4582 43.5403 36.4561 43.7806C36.454 44.0209 36.5464 44.2525 36.7134 44.4254L40.6019 48.3148C40.7738 48.4867 41.0069 48.5832 41.25 48.5832C41.493 48.5832 41.7261 48.4867 41.898 48.3148L49.676 40.5369C49.8429 40.364 49.9353 40.1324 49.9332 39.8921C49.9312 39.6518 49.8347 39.4218 49.6648 39.2519C49.4948 39.0819 49.2649 38.9855 49.0246 38.9834C48.7842 38.9813 48.5527 39.0737 48.3798 39.2407Z" fill="url(#paint11_linear_435_253)"/>
</g>
<defs>
<linearGradient id="paint0_linear_435_253" x1="0" y1="0" x2="58.4323" y2="4.26052" gradientUnits="userSpaceOnUse">
<stop stop-color="#5388F0"/>
<stop offset="1" stop-color="#356DDA"/>
</linearGradient>
<linearGradient id="paint1_linear_435_253" x1="18.3335" y1="22.9167" x2="26.1188" y2="23.5222" gradientUnits="userSpaceOnUse">
<stop stop-color="#5388F0"/>
<stop offset="1" stop-color="#356DDA"/>
</linearGradient>
<linearGradient id="paint2_linear_435_253" x1="7.3335" y1="22.9167" x2="15.1188" y2="23.5222" gradientUnits="userSpaceOnUse">
<stop stop-color="#5388F0"/>
<stop offset="1" stop-color="#356DDA"/>
</linearGradient>
<linearGradient id="paint3_linear_435_253" x1="40.3335" y1="22.9167" x2="48.1188" y2="23.5222" gradientUnits="userSpaceOnUse">
<stop stop-color="#5388F0"/>
<stop offset="1" stop-color="#356DDA"/>
</linearGradient>
<linearGradient id="paint4_linear_435_253" x1="18.3335" y1="31.1667" x2="26.1188" y2="31.7722" gradientUnits="userSpaceOnUse">
<stop stop-color="#5388F0"/>
<stop offset="1" stop-color="#356DDA"/>
</linearGradient>
<linearGradient id="paint5_linear_435_253" x1="7.3335" y1="31.1667" x2="15.1188" y2="31.7722" gradientUnits="userSpaceOnUse">
<stop stop-color="#5388F0"/>
<stop offset="1" stop-color="#356DDA"/>
</linearGradient>
<linearGradient id="paint6_linear_435_253" x1="18.3335" y1="39.4167" x2="26.1188" y2="40.0222" gradientUnits="userSpaceOnUse">
<stop stop-color="#5388F0"/>
<stop offset="1" stop-color="#356DDA"/>
</linearGradient>
<linearGradient id="paint7_linear_435_253" x1="29.3335" y1="22.9167" x2="37.1188" y2="23.5222" gradientUnits="userSpaceOnUse">
<stop stop-color="#5388F0"/>
<stop offset="1" stop-color="#356DDA"/>
</linearGradient>
<linearGradient id="paint8_linear_435_253" x1="29.3335" y1="31.1667" x2="36.1552" y2="31.631" gradientUnits="userSpaceOnUse">
<stop stop-color="#5388F0"/>
<stop offset="1" stop-color="#356DDA"/>
</linearGradient>
<linearGradient id="paint9_linear_435_253" x1="7.3335" y1="39.4167" x2="15.1188" y2="40.0222" gradientUnits="userSpaceOnUse">
<stop stop-color="#5388F0"/>
<stop offset="1" stop-color="#356DDA"/>
</linearGradient>
<linearGradient id="paint10_linear_435_253" x1="31.1665" y1="31.1667" x2="56.5044" y2="32.8911" gradientUnits="userSpaceOnUse">
<stop stop-color="#5388F0"/>
<stop offset="1" stop-color="#356DDA"/>
</linearGradient>
<linearGradient id="paint11_linear_435_253" x1="36.4561" y1="38.9834" x2="50.7202" y2="40.3462" gradientUnits="userSpaceOnUse">
<stop stop-color="#5388F0"/>
<stop offset="1" stop-color="#356DDA"/>
</linearGradient>
<clipPath id="clip0_435_253">
<rect width="55" height="55" fill="white"/>
</clipPath>
</defs>
</svg>
