<svg width="158" height="80" viewBox="0 0 158 80" fill="none" xmlns="http://www.w3.org/2000/svg">
<path d="M20.7373 40.867C20.7373 39.9067 20.9054 38.9686 21.2415 38.0526C21.5776 37.1219 22.0672 36.2798 22.7102 35.5263C23.3679 34.7581 24.1644 34.1524 25.0997 33.7091C26.035 33.2512 27.0945 33.0222 28.2783 33.0222C29.6813 33.0222 30.8942 33.3472 31.9172 33.9972C32.9402 34.6325 33.7002 35.4524 34.1971 36.4571L32.268 37.7645C31.9757 37.1293 31.603 36.627 31.15 36.2576C30.7116 35.8883 30.2293 35.6297 29.7032 35.482C29.1917 35.3343 28.6875 35.2604 28.1906 35.2604C27.3722 35.2604 26.6561 35.4303 26.0423 35.7701C25.4285 36.0951 24.9097 36.5309 24.4859 37.0776C24.0767 37.6242 23.7625 38.2373 23.5433 38.9169C23.3386 39.5965 23.2363 40.2761 23.2363 40.9557C23.2363 41.7091 23.3606 42.4404 23.609 43.1496C23.8575 43.844 24.2009 44.4644 24.6393 45.0111C25.0924 45.5429 25.6258 45.964 26.2396 46.2742C26.8534 46.5845 27.5256 46.7396 28.2564 46.7396C28.7532 46.7396 29.2721 46.651 29.8128 46.4737C30.3535 46.2964 30.8504 46.0231 31.3034 45.6537C31.7711 45.2696 32.1365 44.7673 32.3995 44.1468L34.4382 45.3213C34.1167 46.1043 33.6125 46.7692 32.9256 47.3158C32.2534 47.8624 31.4934 48.2761 30.6458 48.5568C29.8128 48.8375 28.9871 48.9778 28.1687 48.9778C27.0726 48.9778 26.0715 48.7488 25.1654 48.2909C24.2594 47.8181 23.4775 47.1976 22.8198 46.4294C22.1622 45.6464 21.6507 44.7747 21.2853 43.8144C20.92 42.8393 20.7373 41.8569 20.7373 40.867Z" fill="#1E1E1E"/>
<path d="M40.989 33.1108H43.3126L49.3629 48.8449H46.7762L45.1321 44.5679H39.1256L37.5034 48.8449H34.8948L40.989 33.1108ZM44.6498 42.7285L42.1508 35.8366L39.5641 42.7285H44.6498Z" fill="#1E1E1E"/>
<path d="M60.2807 36.8116C60.1345 36.6491 59.9226 36.4792 59.645 36.3019C59.3673 36.1099 59.0385 35.9326 58.6585 35.7701C58.2785 35.6076 57.8693 35.4746 57.4309 35.3712C56.9925 35.2678 56.5394 35.2161 56.0718 35.2161C55.0488 35.2161 54.2888 35.4081 53.7919 35.7922C53.2951 36.1764 53.0466 36.7082 53.0466 37.3878C53.0466 37.8901 53.1854 38.289 53.4631 38.5845C53.7408 38.8652 54.1646 39.1016 54.7346 39.2936C55.3045 39.4857 56.0206 39.6925 56.8829 39.9141C57.9351 40.1653 58.8485 40.4681 59.623 40.8227C60.3976 41.1625 60.9895 41.6205 61.3987 42.1967C61.8079 42.7729 62.0125 43.5337 62.0125 44.4792C62.0125 45.277 61.8663 45.964 61.5741 46.5402C61.2818 47.1163 60.8726 47.5891 60.3465 47.9585C59.8203 48.313 59.2138 48.5789 58.527 48.7562C57.8401 48.9187 57.1021 49 56.3129 49C55.5383 49 54.7638 48.9187 53.9892 48.7562C53.2293 48.5937 52.4986 48.3573 51.7971 48.0471C51.1102 47.7221 50.4745 47.3306 49.8899 46.8726L51.0079 44.7452C51.1979 44.9372 51.4683 45.1514 51.819 45.3878C52.1844 45.6094 52.6009 45.8236 53.0685 46.0305C53.5508 46.2373 54.0696 46.4146 54.625 46.5623C55.1949 46.6953 55.7722 46.7618 56.3568 46.7618C57.3359 46.7618 58.0812 46.5919 58.5927 46.2521C59.1188 45.8975 59.3819 45.3952 59.3819 44.7452C59.3819 44.2133 59.2138 43.7922 58.8777 43.482C58.5416 43.157 58.052 42.8837 57.409 42.6621C56.7659 42.4404 55.9987 42.2188 55.1072 41.9972C54.0842 41.7165 53.2293 41.4137 52.5424 41.0886C51.8555 40.7488 51.3367 40.3204 50.986 39.8033C50.6499 39.2715 50.4818 38.5993 50.4818 37.7867C50.4818 36.7525 50.7302 35.8809 51.2271 35.1717C51.724 34.4478 52.3963 33.9086 53.2439 33.554C54.1061 33.1847 55.0707 33 56.1375 33C56.839 33 57.504 33.0813 58.1324 33.2438C58.7608 33.3915 59.3454 33.5983 59.8861 33.8643C60.4414 34.1302 60.9456 34.4331 61.3987 34.7729L60.2807 36.8116Z" fill="#1E1E1E"/>
<path d="M77.2551 33.1108V48.8449H74.778V41.9086H66.9301V48.8449H64.4749V33.1108H66.9301V39.6925H74.778V33.1108H77.2551Z" fill="#1E1E1E"/>
<path d="M92.9983 44.7895C92.9983 45.6316 92.7791 46.3555 92.3406 46.9612C91.9168 47.5669 91.3396 48.0323 90.6088 48.3573C89.8781 48.6824 89.0743 48.8449 88.1975 48.8449H80.7661V33.1108H88.7894C89.5201 33.1108 90.1485 33.3102 90.6746 33.7091C91.2153 34.0933 91.6245 34.5956 91.9022 35.2161C92.1945 35.8218 92.3406 36.4571 92.3406 37.1219C92.3406 37.8901 92.1433 38.614 91.7488 39.2936C91.3688 39.9584 90.8207 40.4534 90.1047 40.7784C90.9961 41.0443 91.6976 41.5319 92.2091 42.241C92.7352 42.9354 92.9983 43.7849 92.9983 44.7895ZM90.4773 44.3241C90.4773 43.8809 90.3823 43.482 90.1923 43.1274C90.017 42.7581 89.7685 42.4626 89.447 42.241C89.1401 42.0046 88.7747 41.8864 88.3509 41.8864H83.2213V46.6953H88.1975C88.6359 46.6953 89.0232 46.5919 89.3593 46.385C89.7101 46.1634 89.9804 45.8753 90.1704 45.5208C90.375 45.1514 90.4773 44.7525 90.4773 44.3241ZM83.2213 35.2604V39.892H87.7371C88.1463 39.892 88.5117 39.7959 88.8332 39.6039C89.1547 39.397 89.4105 39.1237 89.6004 38.7839C89.7904 38.4294 89.8854 38.0305 89.8854 37.5873C89.8854 37.1293 89.7977 36.7304 89.6224 36.3906C89.447 36.036 89.2059 35.7627 88.899 35.5706C88.6067 35.3638 88.2632 35.2604 87.8687 35.2604H83.2213Z" fill="#1E1E1E"/>
<path d="M99.7316 33.1108H102.055L108.106 48.8449H105.519L103.875 44.5679H97.8683L96.2461 48.8449H93.6374L99.7316 33.1108ZM103.392 42.7285L100.893 35.8366L98.3067 42.7285H103.392Z" fill="#1E1E1E"/>
<path d="M108.445 40.867C108.445 39.9067 108.613 38.9686 108.949 38.0526C109.285 37.1219 109.774 36.2798 110.417 35.5263C111.075 34.7581 111.872 34.1524 112.807 33.7091C113.742 33.2512 114.802 33.0222 115.985 33.0222C117.388 33.0222 118.601 33.3472 119.624 33.9972C120.647 34.6325 121.407 35.4524 121.904 36.4571L119.975 37.7645C119.683 37.1293 119.31 36.627 118.857 36.2576C118.419 35.8883 117.936 35.6297 117.41 35.482C116.899 35.3343 116.395 35.2604 115.898 35.2604C115.079 35.2604 114.363 35.4303 113.75 35.7701C113.136 36.0951 112.617 36.5309 112.193 37.0776C111.784 37.6242 111.47 38.2373 111.25 38.9169C111.046 39.5965 110.944 40.2761 110.944 40.9557C110.944 41.7091 111.068 42.4404 111.316 43.1496C111.565 43.844 111.908 44.4644 112.347 45.0111C112.8 45.5429 113.333 45.964 113.947 46.2742C114.561 46.5845 115.233 46.7396 115.964 46.7396C116.46 46.7396 116.979 46.651 117.52 46.4737C118.061 46.2964 118.558 46.0231 119.011 45.6537C119.478 45.2696 119.844 44.7673 120.107 44.1468L122.145 45.3213C121.824 46.1043 121.32 46.7692 120.633 47.3158C119.961 47.8624 119.201 48.2761 118.353 48.5568C117.52 48.8375 116.694 48.9778 115.876 48.9778C114.78 48.9778 113.779 48.7488 112.873 48.2909C111.967 47.8181 111.185 47.1976 110.527 46.4294C109.869 45.6464 109.358 44.7747 108.993 43.8144C108.627 42.8393 108.445 41.8569 108.445 40.867Z" fill="#1E1E1E"/>
<path d="M124.416 48.8449V33.133H126.872V41.2216L134.193 33.1108H136.912L130.774 40.0693L137.262 48.8449H134.478L129.217 41.6427L126.872 44.1025V48.8449H124.416Z" fill="#1E1E1E"/>
<path fill-rule="evenodd" clip-rule="evenodd" d="M60.9514 74.8642L66.2022 69.547C66.5244 69.2207 66.5244 68.6917 66.2022 68.3654L60.9514 63.0481C60.6292 62.7218 60.1068 62.7218 59.7845 63.0481C59.4623 63.3744 59.4623 63.9034 59.7845 64.2297L63.6268 68.1206H23.8146C18.6053 68.1206 14.7813 68.1189 11.8533 67.7202C8.94907 67.3248 7.05018 66.5528 5.61796 65.1024C4.18573 63.6521 3.42335 61.7291 3.03288 58.7881C2.63922 55.8231 2.63747 51.9507 2.63747 46.6755V34.4211C2.63747 29.1458 2.63922 25.2735 3.03288 22.3084C3.42335 19.3674 4.18573 17.4445 5.61796 15.9941C7.05018 14.5438 8.94907 13.7717 11.8533 13.3763C14.7813 12.9777 18.6053 12.9759 23.8146 12.9759H65.6188C66.0744 12.9759 66.4438 12.6018 66.4438 12.1404C66.4438 11.6789 66.0744 11.3048 65.6188 11.3048H23.7492C18.6185 11.3048 14.684 11.3048 11.6334 11.7202C8.5462 12.1405 6.24104 12.9999 4.45111 14.8125C2.66119 16.6251 1.8125 18.9594 1.39743 22.0857C0.987292 25.1749 0.987297 29.1593 0.987305 34.3549V46.7416C0.987297 51.9373 0.987292 55.9216 1.39743 59.0108C1.8125 62.1371 2.66119 64.4715 4.45111 66.284C6.24104 68.0966 8.5462 68.956 11.6334 69.3764C14.684 69.7917 18.6186 69.7917 23.7492 69.7917H63.6268L59.7845 73.6826C59.4623 74.0089 59.4623 74.5379 59.7845 74.8642C60.1068 75.1905 60.6292 75.1905 60.9514 74.8642Z" fill="url(#paint0_angular_435_358)"/>
<path fill-rule="evenodd" clip-rule="evenodd" d="M97.7889 6.23227L92.5381 11.5495C92.2159 11.8758 92.2159 12.4048 92.5381 12.7311L97.7889 18.0484C98.1111 18.3747 98.6335 18.3747 98.9557 18.0484C99.2779 17.7221 99.2779 17.1931 98.9557 16.8668L95.1134 12.9759H134.926C140.135 12.9759 143.959 12.9776 146.887 13.3763C149.791 13.7717 151.69 14.5437 153.122 15.9941C154.555 17.4444 155.317 19.3674 155.707 22.3084C156.101 25.2734 156.103 29.1458 156.103 34.421V46.6754C156.103 51.9506 156.101 55.823 155.707 58.7881C155.317 61.7291 154.555 63.652 153.122 65.1024C151.69 66.5527 149.791 67.3248 146.887 67.7202C143.959 68.1188 140.135 68.1206 134.926 68.1206H93.1215C92.6658 68.1206 92.2964 68.4947 92.2964 68.9561C92.2964 69.4176 92.6658 69.7917 93.1215 69.7917H134.991C140.122 69.7917 144.056 69.7917 147.107 69.3763C150.194 68.956 152.499 68.0966 154.289 66.284C156.079 64.4714 156.928 62.1371 157.343 59.0107C157.753 55.9216 157.753 51.9372 157.753 46.7416V34.3549C157.753 29.1592 157.753 25.1749 157.343 22.0857C156.928 18.9594 156.079 16.625 154.289 14.8125C152.499 12.9999 150.194 12.1404 147.107 11.7201C144.056 11.3048 140.122 11.3048 134.991 11.3048H95.1134L98.9557 7.41388C99.2779 7.08759 99.2779 6.55856 98.9557 6.23227C98.6335 5.90598 98.1111 5.90598 97.7889 6.23227Z" fill="url(#paint1_angular_435_358)"/>
<ellipse cx="79.3705" cy="11.5833" rx="10.451" ry="10.5833" fill="url(#paint2_linear_435_358)"/>
<path d="M84.8738 12.0498C84.4694 11.9876 84.1102 12.2681 84.0522 12.6681C83.9065 13.6727 83.4483 14.5893 82.727 15.3192C80.8914 17.1767 77.9068 17.1753 76.0718 15.3192C74.2373 13.4623 74.2373 10.441 76.0718 8.58456C76.762 7.88659 77.6332 7.4315 78.6082 7.26584C79.0275 7.18531 79.4783 7.17139 79.946 7.22503C80.5883 7.29984 81.1861 7.51547 81.7316 7.83207L80.7889 7.99496C80.3951 8.06332 80.1299 8.44183 80.1978 8.84072C80.2579 9.19777 80.5641 9.44997 80.9106 9.44997C80.9509 9.44997 80.9919 9.44674 81.0336 9.43956L83.5607 9.00236C83.7495 8.96946 83.9185 8.86211 84.0296 8.70326C84.1406 8.54478 84.1845 8.34797 84.1519 8.15622L83.7191 5.59929C83.6526 5.20078 83.2835 4.93385 82.8833 5.00075C82.4895 5.06911 82.2243 5.44799 82.2922 5.84688L82.4061 6.51987C81.7052 6.12201 80.9322 5.86461 80.1108 5.76892C79.4956 5.69806 78.8988 5.71777 78.3526 5.82365C77.095 6.03687 75.9524 6.63329 75.0479 7.54844C72.6487 9.97627 72.6487 13.9267 75.0479 16.3552C76.2475 17.5695 77.8237 18.1763 79.3994 18.1763C80.9756 18.1763 82.551 17.5695 83.751 16.3552C84.6935 15.4014 85.2931 14.2 85.4847 12.8813C85.5428 12.4806 85.2691 12.1084 84.8738 12.0498Z" fill="white"/>
<ellipse cx="79.3705" cy="68.3991" rx="10.451" ry="10.5833" fill="url(#paint3_linear_435_358)"/>
<path d="M75.52 69.9243V68.5262H79.496V69.9243H75.52ZM75.52 71.7742V70.8139H80.2214V71.7742H75.52ZM76.6221 73.4123V63.386H80.1516C80.626 63.386 81.0491 63.4801 81.4212 63.6684C81.8025 63.8567 82.1233 64.1062 82.3837 64.4169C82.6535 64.7275 82.8581 65.0759 82.9976 65.4619C83.1464 65.8478 83.2208 66.2433 83.2208 66.6481C83.2208 67.2035 83.0999 67.7354 82.8581 68.2438C82.6256 68.7428 82.2861 69.1476 81.8397 69.4583C81.4026 69.7689 80.8631 69.9243 80.2214 69.9243H78.1985V73.4123H76.6221ZM78.1985 68.5262H80.1377C80.5004 68.5262 80.7887 68.4462 81.0026 68.2862C81.2258 68.1167 81.3839 67.8908 81.477 67.6083C81.5793 67.3259 81.6304 67.0058 81.6304 66.6481C81.6304 66.2809 81.57 65.9561 81.4491 65.6737C81.3374 65.3912 81.1607 65.1747 80.9189 65.0241C80.6864 64.864 80.3935 64.784 80.04 64.784H78.1985V68.5262Z" fill="white"/>
<defs>
<radialGradient id="paint0_angular_435_358" cx="0" cy="0" r="1" gradientUnits="userSpaceOnUse" gradientTransform="translate(33.3279 43.0965) rotate(-90) scale(32 40.3291)">
<stop offset="0.640372" stop-color="#1E1E1E"/>
<stop offset="0.891238" stop-color="#1E1E1E" stop-opacity="0.15"/>
</radialGradient>
<radialGradient id="paint1_angular_435_358" cx="0" cy="0" r="1" gradientUnits="userSpaceOnUse" gradientTransform="translate(125.412 38) rotate(90) scale(32 40.3291)">
<stop offset="0.640372" stop-color="#1E1E1E"/>
<stop offset="0.891238" stop-color="#1E1E1E" stop-opacity="0.15"/>
</radialGradient>
<linearGradient id="paint2_linear_435_358" x1="68.9194" y1="1" x2="91.1436" y2="2.49351" gradientUnits="userSpaceOnUse">
<stop stop-color="#5388F0"/>
<stop offset="1" stop-color="#356DDA"/>
</linearGradient>
<linearGradient id="paint3_linear_435_358" x1="68.9194" y1="57.8158" x2="91.1436" y2="59.3093" gradientUnits="userSpaceOnUse">
<stop stop-color="#5388F0"/>
<stop offset="1" stop-color="#356DDA"/>
</linearGradient>
</defs>
</svg>
