<svg width="110" height="110" viewBox="0 0 110 110" fill="none" xmlns="http://www.w3.org/2000/svg">
<g clip-path="url(#clip0_435_386)">
<path d="M0 108.699V101.065H3.15969C3.48928 101.065 3.7902 101.133 4.06246 101.269C4.34189 101.406 4.58191 101.592 4.78253 101.828C4.98314 102.058 5.14077 102.316 5.25541 102.603C5.37005 102.882 5.42736 103.169 5.42736 103.463C5.42736 103.878 5.33422 104.273 5.14794 104.645C4.96881 105.011 4.71446 105.309 4.38488 105.538C4.0553 105.767 3.6684 105.882 3.22418 105.882H0.752308V108.699H0ZM0.752308 105.215H3.19193C3.49286 105.215 3.75437 105.133 3.97648 104.968C4.19859 104.803 4.37055 104.588 4.49235 104.323C4.61416 104.058 4.67506 103.771 4.67506 103.463C4.67506 103.147 4.60341 102.857 4.46011 102.592C4.31681 102.327 4.12695 102.119 3.89051 101.968C3.66123 101.811 3.40688 101.732 3.12745 101.732H0.752308V105.215Z" fill="#1E1E1E"/>
<path d="M6.02073 107.086C6.02073 106.735 6.12104 106.434 6.32165 106.183C6.52227 105.925 6.79811 105.728 7.14919 105.592C7.50743 105.448 7.91941 105.377 8.38513 105.377C8.65739 105.377 8.9404 105.398 9.23416 105.441C9.52792 105.484 9.78943 105.549 10.0187 105.635V105.162C10.0187 104.688 9.87899 104.312 9.59957 104.033C9.32014 103.753 8.93324 103.613 8.43886 103.613C8.13794 103.613 7.8406 103.671 7.54684 103.785C7.26025 103.893 6.95932 104.054 6.64407 104.269L6.36464 103.753C6.73005 103.502 7.08829 103.316 7.43937 103.194C7.79044 103.065 8.14869 103 8.51409 103C9.20192 103 9.74645 103.198 10.1477 103.592C10.5489 103.986 10.7495 104.531 10.7495 105.226V107.817C10.7495 107.918 10.771 107.993 10.814 108.043C10.857 108.086 10.9251 108.111 11.0182 108.118V108.699C10.9394 108.706 10.8713 108.713 10.814 108.721C10.7567 108.728 10.7137 108.728 10.685 108.721C10.5059 108.713 10.3698 108.656 10.2766 108.548C10.1835 108.441 10.1333 108.326 10.1262 108.204L10.1154 107.796C9.86467 108.118 9.53866 108.369 9.13743 108.548C8.7362 108.721 8.32781 108.807 7.91225 108.807C7.554 108.807 7.228 108.731 6.93425 108.581C6.64765 108.423 6.42196 108.215 6.25717 107.957C6.09954 107.692 6.02073 107.402 6.02073 107.086ZM9.77152 107.516C9.85034 107.416 9.91124 107.319 9.95423 107.226C9.99721 107.133 10.0187 107.05 10.0187 106.979V106.162C9.7751 106.068 9.52075 105.997 9.25565 105.946C8.99772 105.896 8.7362 105.871 8.4711 105.871C7.94807 105.871 7.52535 105.975 7.20293 106.183C6.88051 106.391 6.7193 106.674 6.7193 107.032C6.7193 107.24 6.77304 107.437 6.88051 107.624C6.98798 107.803 7.14561 107.954 7.35339 108.075C7.56117 108.19 7.80477 108.247 8.0842 108.247C8.43528 108.247 8.76128 108.179 9.0622 108.043C9.37029 107.907 9.60673 107.731 9.77152 107.516Z" fill="#1E1E1E"/>
<path d="M14.8971 108.807C13.9944 108.807 13.3101 108.531 12.8444 107.979C12.3858 107.42 12.1566 106.649 12.1566 105.667C12.1566 104.972 12.2139 104.384 12.3285 103.904C12.4432 103.423 12.6115 103.029 12.8337 102.721C13.0558 102.405 13.328 102.147 13.6504 101.947C13.98 101.746 14.3562 101.581 14.7789 101.452L17.1326 100.678L17.197 101.312L14.9294 102.054C14.4995 102.198 14.1412 102.38 13.8546 102.603C13.568 102.825 13.3424 103.108 13.1776 103.452C13.0199 103.789 12.916 104.23 12.8659 104.774C13.0522 104.359 13.3388 104.04 13.7257 103.818C14.1126 103.588 14.5604 103.473 15.0691 103.473C15.6136 103.473 16.0757 103.585 16.4555 103.807C16.8424 104.029 17.1361 104.337 17.3368 104.731C17.5374 105.126 17.6377 105.581 17.6377 106.097C17.6377 106.642 17.5302 107.118 17.3153 107.527C17.1075 107.928 16.7994 108.244 16.391 108.473C15.9898 108.695 15.4918 108.807 14.8971 108.807ZM14.8971 108.161C15.5348 108.161 16.0256 107.979 16.3695 107.613C16.7206 107.24 16.8961 106.746 16.8961 106.129C16.8961 105.527 16.7242 105.036 16.3802 104.656C16.0435 104.276 15.5491 104.086 14.8971 104.086C14.5246 104.086 14.1878 104.165 13.8869 104.323C13.586 104.481 13.3459 104.71 13.1668 105.011C12.9949 105.312 12.9089 105.685 12.9089 106.129C12.9089 106.516 12.9841 106.864 13.1346 107.172C13.2922 107.48 13.5179 107.724 13.8117 107.903C14.1054 108.075 14.4672 108.161 14.8971 108.161Z" fill="#1E1E1E"/>
<path d="M21.253 108.807C20.8518 108.807 20.4792 108.731 20.1353 108.581C19.7986 108.423 19.5048 108.212 19.254 107.946C19.0104 107.674 18.8206 107.366 18.6844 107.022C18.5483 106.67 18.4802 106.301 18.4802 105.914C18.4802 105.513 18.5483 105.14 18.6844 104.796C18.8206 104.445 19.014 104.137 19.2648 103.871C19.5156 103.599 19.8093 103.387 20.1461 103.237C20.49 103.079 20.8626 103 21.2638 103C21.665 103 22.034 103.079 22.3707 103.237C22.7075 103.387 23.0013 103.599 23.252 103.871C23.5028 104.137 23.6962 104.445 23.8324 104.796C23.9685 105.14 24.0366 105.513 24.0366 105.914C24.0366 106.301 23.9685 106.67 23.8324 107.022C23.6962 107.366 23.5028 107.674 23.252 107.946C23.0084 108.212 22.7147 108.423 22.3707 108.581C22.034 108.731 21.6614 108.807 21.253 108.807ZM19.2218 105.925C19.2218 106.341 19.3114 106.721 19.4905 107.065C19.6768 107.402 19.924 107.67 20.232 107.871C20.5401 108.065 20.8805 108.161 21.253 108.161C21.6256 108.161 21.9659 108.061 22.274 107.86C22.5821 107.66 22.8293 107.387 23.0156 107.043C23.2019 106.692 23.295 106.312 23.295 105.903C23.295 105.488 23.2019 105.108 23.0156 104.764C22.8293 104.42 22.5821 104.147 22.274 103.947C21.9659 103.746 21.6256 103.646 21.253 103.646C20.8805 103.646 20.5401 103.749 20.232 103.957C19.9311 104.165 19.6875 104.441 19.5012 104.785C19.3149 105.122 19.2218 105.502 19.2218 105.925Z" fill="#1E1E1E"/>
<path d="M26.656 108.699V103.753H24.657V103.097H29.3858V103.753H27.3868V108.699H26.656Z" fill="#1E1E1E"/>
<path d="M29.8977 107.086C29.8977 106.735 29.998 106.434 30.1986 106.183C30.3992 105.925 30.6751 105.728 31.0262 105.592C31.3844 105.448 31.7964 105.377 32.2621 105.377C32.5344 105.377 32.8174 105.398 33.1111 105.441C33.4049 105.484 33.6664 105.549 33.8957 105.635V105.162C33.8957 104.688 33.756 104.312 33.4765 104.033C33.1971 103.753 32.8102 103.613 32.3158 103.613C32.0149 103.613 31.7176 103.671 31.4238 103.785C31.1372 103.893 30.8363 104.054 30.521 104.269L30.2416 103.753C30.607 103.502 30.9653 103.316 31.3163 103.194C31.6674 103.065 32.0256 103 32.3911 103C33.0789 103 33.6234 103.198 34.0246 103.592C34.4259 103.986 34.6265 104.531 34.6265 105.226V107.817C34.6265 107.918 34.648 107.993 34.691 108.043C34.734 108.086 34.802 108.111 34.8952 108.118V108.699C34.8163 108.706 34.7483 108.713 34.691 108.721C34.6336 108.728 34.5907 108.728 34.562 108.721C34.3829 108.713 34.2467 108.656 34.1536 108.548C34.0605 108.441 34.0103 108.326 34.0031 108.204L33.9924 107.796C33.7416 108.118 33.4156 108.369 33.0144 108.548C32.6132 108.721 32.2048 108.807 31.7892 108.807C31.431 108.807 31.105 108.731 30.8112 108.581C30.5246 108.423 30.2989 108.215 30.1341 107.957C29.9765 107.692 29.8977 107.402 29.8977 107.086ZM33.6485 107.516C33.7273 107.416 33.7882 107.319 33.8312 107.226C33.8742 107.133 33.8957 107.05 33.8957 106.979V106.162C33.6521 106.068 33.3977 105.997 33.1326 105.946C32.8747 105.896 32.6132 105.871 32.3481 105.871C31.825 105.871 31.4023 105.975 31.0799 106.183C30.7575 106.391 30.5963 106.674 30.5963 107.032C30.5963 107.24 30.65 107.437 30.7575 107.624C30.8649 107.803 31.0226 107.954 31.2304 108.075C31.4381 108.19 31.6817 108.247 31.9612 108.247C32.3122 108.247 32.6382 108.179 32.9392 108.043C33.2472 107.907 33.4837 107.731 33.6485 107.516Z" fill="#1E1E1E"/>
<path d="M38.6236 108.807C38.2224 108.807 37.8498 108.731 37.5059 108.581C37.162 108.423 36.8647 108.212 36.6139 107.946C36.3631 107.674 36.1661 107.362 36.0228 107.011C35.8867 106.66 35.8186 106.283 35.8186 105.882C35.8186 105.359 35.9368 104.878 36.1732 104.441C36.4169 104.004 36.75 103.656 37.1727 103.398C37.5955 103.133 38.0755 103 38.6129 103C39.1646 103 39.6446 103.133 40.053 103.398C40.4686 103.663 40.7946 104.015 41.031 104.452C41.2674 104.882 41.3857 105.355 41.3857 105.871C41.3857 105.929 41.3857 105.986 41.3857 106.043C41.3857 106.093 41.3821 106.133 41.3749 106.162H36.5816C36.6175 106.563 36.7285 106.921 36.9148 107.237C37.1083 107.545 37.3554 107.792 37.6564 107.979C37.9645 108.158 38.2976 108.247 38.6559 108.247C39.0213 108.247 39.3652 108.154 39.6876 107.968C40.0172 107.781 40.2465 107.538 40.3754 107.237L41.0095 107.409C40.8949 107.674 40.7193 107.914 40.4829 108.129C40.2465 108.344 39.967 108.513 39.6446 108.634C39.3294 108.749 38.989 108.807 38.6236 108.807ZM36.5602 105.635H40.6978C40.6692 105.226 40.5581 104.868 40.3647 104.559C40.1784 104.251 39.9312 104.011 39.6231 103.839C39.3222 103.66 38.989 103.57 38.6236 103.57C38.2582 103.57 37.925 103.66 37.6241 103.839C37.3232 104.011 37.076 104.255 36.8826 104.57C36.6963 104.878 36.5888 105.233 36.5602 105.635Z" fill="#1E1E1E"/>
<path d="M42.5025 108.699V103.097H43.2548L45.4794 106.957L47.7149 103.097H48.4349V108.699H47.7364V104.194L45.7159 107.699H45.243L43.201 104.194V108.699H42.5025Z" fill="#1E1E1E"/>
<path d="M55.217 108.807C54.8086 108.807 54.4325 108.731 54.0886 108.581C53.7518 108.423 53.4545 108.208 53.1966 107.936C52.9458 107.663 52.7488 107.351 52.6055 107C52.4693 106.649 52.4013 106.276 52.4013 105.882C52.4013 105.352 52.5195 104.868 52.7559 104.43C52.9924 103.993 53.3219 103.646 53.7447 103.387C54.1674 103.129 54.6546 103 55.2063 103C55.7293 103 56.1915 103.122 56.5927 103.366C56.9939 103.603 57.2913 103.925 57.4847 104.334L56.7754 104.559C56.6178 104.273 56.3957 104.051 56.1091 103.893C55.8296 103.728 55.518 103.646 55.1741 103.646C54.8015 103.646 54.4612 103.742 54.1531 103.936C53.845 104.129 53.5978 104.395 53.4115 104.731C53.2324 105.068 53.1428 105.452 53.1428 105.882C53.1428 106.305 53.236 106.688 53.4223 107.032C53.6085 107.376 53.8557 107.652 54.1638 107.86C54.4719 108.061 54.8122 108.161 55.1848 108.161C55.4284 108.161 55.6613 108.118 55.8834 108.032C56.1127 107.946 56.3097 107.832 56.4745 107.688C56.6464 107.538 56.7611 107.376 56.8184 107.204L57.5385 107.42C57.4381 107.685 57.2698 107.925 57.0333 108.14C56.8041 108.348 56.5318 108.513 56.2165 108.634C55.9085 108.749 55.5753 108.807 55.217 108.807Z" fill="#1E1E1E"/>
<path d="M61.1357 108.699C61.1285 108.247 61.1643 107.85 61.2431 107.506C61.322 107.161 61.4402 106.857 61.5978 106.592C61.7626 106.326 61.9596 106.097 62.1889 105.903C62.4182 105.703 62.6761 105.527 62.9627 105.377C63.235 105.226 63.518 105.09 63.8117 104.968C64.1055 104.839 64.3778 104.699 64.6285 104.549C64.8793 104.398 65.0799 104.215 65.2304 104C65.388 103.778 65.4668 103.502 65.4668 103.172C65.4668 102.9 65.4059 102.649 65.2841 102.42C65.1695 102.19 64.9904 102.008 64.7467 101.871C64.5032 101.728 64.1951 101.656 63.8225 101.656C63.4571 101.656 63.1311 101.717 62.8445 101.839C62.5651 101.961 62.3286 102.108 62.1352 102.28C61.9489 102.452 61.7984 102.61 61.6838 102.753L61.2002 102.28C61.2431 102.23 61.3291 102.133 61.4581 101.99C61.5942 101.846 61.7733 101.696 61.9955 101.538C62.2247 101.38 62.4934 101.248 62.8015 101.14C63.1168 101.026 63.4822 100.968 63.8977 100.968C64.4279 100.968 64.8686 101.072 65.2196 101.28C65.5707 101.481 65.8322 101.746 66.0042 102.076C66.1833 102.405 66.2729 102.767 66.2729 103.162C66.2729 103.542 66.1976 103.864 66.0472 104.129C65.9039 104.387 65.714 104.606 65.4776 104.785C65.2483 104.957 64.9975 105.108 64.7253 105.237C64.4602 105.366 64.2094 105.488 63.973 105.602C63.5144 105.81 63.149 106.015 62.8767 106.215C62.6045 106.416 62.4003 106.617 62.2641 106.817C62.1352 107.018 62.0492 107.219 62.0062 107.42C61.9632 107.62 61.9381 107.824 61.931 108.032H66.2836V108.699H61.1357Z" fill="#1E1E1E"/>
<path d="M70.5401 108.807C70.0242 108.792 69.5693 108.667 69.1752 108.43C68.7811 108.194 68.4516 107.885 68.1865 107.506C67.9214 107.118 67.7207 106.703 67.5846 106.258C67.4485 105.807 67.3804 105.366 67.3804 104.936C67.3804 104.477 67.4521 104.018 67.5954 103.56C67.7458 103.101 67.9572 102.685 68.2295 102.312C68.5089 101.932 68.842 101.631 69.229 101.409C69.6159 101.18 70.0529 101.065 70.5401 101.065C71.0631 101.065 71.5181 101.187 71.905 101.431C72.2991 101.674 72.6287 101.99 72.8938 102.377C73.1589 102.764 73.3559 103.183 73.4849 103.635C73.621 104.086 73.6891 104.52 73.6891 104.936C73.6891 105.402 73.6138 105.864 73.4634 106.323C73.3201 106.774 73.1123 107.187 72.84 107.559C72.5678 107.932 72.2346 108.233 71.8405 108.462C71.4536 108.685 71.0202 108.799 70.5401 108.807ZM68.1435 104.936C68.1578 105.309 68.2151 105.685 68.3154 106.065C68.4229 106.437 68.5769 106.782 68.7776 107.097C68.9782 107.405 69.2218 107.656 69.5084 107.85C69.8021 108.036 70.146 108.129 70.5401 108.129C70.9413 108.129 71.2924 108.029 71.5933 107.828C71.8943 107.627 72.1415 107.366 72.3349 107.043C72.5355 106.713 72.686 106.366 72.7863 106C72.8866 105.627 72.9368 105.273 72.9368 104.936C72.9368 104.563 72.883 104.19 72.7755 103.818C72.6681 103.438 72.5104 103.094 72.3027 102.785C72.0949 102.47 71.8441 102.219 71.5504 102.033C71.2566 101.839 70.9199 101.742 70.5401 101.742C70.1317 101.742 69.7771 101.846 69.4761 102.054C69.1752 102.255 68.9244 102.517 68.7238 102.839C68.5304 103.162 68.3835 103.509 68.2832 103.882C68.19 104.248 68.1435 104.599 68.1435 104.936Z" fill="#1E1E1E"/>
<path d="M78.4357 108.032V108.699H74.8784V108.032H76.3293V101.785C76.2648 101.871 76.1681 101.968 76.0391 102.076C75.9173 102.176 75.774 102.276 75.6092 102.377C75.4444 102.47 75.276 102.549 75.1041 102.613C74.9321 102.678 74.7745 102.71 74.6312 102.71V102.022C74.8247 102.022 75.0181 101.972 75.2116 101.871C75.405 101.764 75.5841 101.646 75.7489 101.517C75.9209 101.38 76.057 101.259 76.1573 101.151C76.2648 101.036 76.3221 100.975 76.3293 100.968H77.0708V108.032H78.4357Z" fill="#1E1E1E"/>
<path d="M81.7138 108.796C81.2624 108.796 80.854 108.721 80.4886 108.57C80.1232 108.419 79.8259 108.212 79.5966 107.946C79.3673 107.681 79.224 107.373 79.1667 107.022L79.6181 106.613C79.6324 106.857 79.7292 107.097 79.9083 107.333C80.0874 107.563 80.331 107.749 80.6391 107.893C80.9543 108.036 81.3126 108.108 81.7138 108.108C82.0721 108.108 82.3945 108.047 82.6811 107.925C82.9748 107.796 83.2041 107.624 83.3689 107.409C83.5409 107.187 83.6268 106.928 83.6268 106.635C83.6268 106.319 83.5265 106.05 83.3259 105.828C83.1253 105.599 82.8423 105.423 82.4769 105.301C82.1115 105.179 81.678 105.119 81.1765 105.119H80.8111V104.484H81.1765C81.8714 104.484 82.4195 104.37 82.8208 104.14C83.222 103.911 83.4226 103.567 83.4226 103.108C83.4226 102.807 83.3402 102.545 83.1754 102.323C83.0178 102.101 82.8029 101.929 82.5306 101.807C82.2655 101.685 81.9753 101.624 81.6601 101.624C81.1872 101.624 80.7824 101.728 80.4456 101.936C80.1089 102.144 79.8725 102.402 79.7363 102.71L79.2312 102.216C79.3673 101.957 79.5572 101.735 79.8008 101.549C80.0516 101.363 80.3346 101.219 80.6498 101.119C80.9723 101.018 81.3054 100.968 81.6493 100.968C82.1365 100.968 82.57 101.061 82.9497 101.248C83.3366 101.434 83.6376 101.685 83.8525 102C84.0746 102.316 84.1857 102.678 84.1857 103.086C84.1857 103.373 84.1284 103.631 84.0137 103.861C83.8991 104.083 83.7307 104.273 83.5086 104.43C83.2865 104.581 83.0142 104.696 82.6918 104.774C83.0286 104.839 83.3223 104.964 83.5731 105.151C83.831 105.337 84.0281 105.567 84.1642 105.839C84.3075 106.104 84.3791 106.398 84.3791 106.721C84.3791 107.151 84.2538 107.52 84.003 107.828C83.7594 108.136 83.437 108.376 83.0357 108.548C82.6345 108.713 82.1939 108.796 81.7138 108.796Z" fill="#1E1E1E"/>
<path d="M88.4617 108.699V103.097H91.8041V103.753H89.1925V108.699H88.4617Z" fill="#1E1E1E"/>
<path d="M95.2139 108.807C94.8126 108.807 94.4401 108.731 94.0962 108.581C93.7594 108.423 93.4657 108.212 93.2149 107.946C92.9713 107.674 92.7814 107.366 92.6453 107.022C92.5091 106.67 92.4411 106.301 92.4411 105.914C92.4411 105.513 92.5091 105.14 92.6453 104.796C92.7814 104.445 92.9749 104.137 93.2256 103.871C93.4764 103.599 93.7702 103.387 94.1069 103.237C94.4508 103.079 94.8234 103 95.2246 103C95.6259 103 95.9948 103.079 96.3316 103.237C96.6683 103.387 96.9621 103.599 97.2129 103.871C97.4636 104.137 97.6571 104.445 97.7932 104.796C97.9294 105.14 97.9974 105.513 97.9974 105.914C97.9974 106.301 97.9294 106.67 97.7932 107.022C97.6571 107.366 97.4636 107.674 97.2129 107.946C96.9693 108.212 96.6755 108.423 96.3316 108.581C95.9948 108.731 95.6223 108.807 95.2139 108.807ZM93.1826 105.925C93.1826 106.341 93.2722 106.721 93.4513 107.065C93.6376 107.402 93.8848 107.67 94.1929 107.871C94.501 108.065 94.8413 108.161 95.2139 108.161C95.5864 108.161 95.9268 108.061 96.2349 107.86C96.543 107.66 96.7901 107.387 96.9764 107.043C97.1627 106.692 97.2559 106.312 97.2559 105.903C97.2559 105.488 97.1627 105.108 96.9764 104.764C96.7901 104.42 96.543 104.147 96.2349 103.947C95.9268 103.746 95.5864 103.646 95.2139 103.646C94.8413 103.646 94.501 103.749 94.1929 103.957C93.892 104.165 93.6484 104.441 93.4621 104.785C93.2758 105.122 93.1826 105.502 93.1826 105.925Z" fill="#1E1E1E"/>
<path d="M98.5963 110V108.043H98.693C98.8578 108.043 99.0083 107.993 99.1444 107.893C99.2806 107.792 99.4024 107.617 99.5098 107.366C99.6173 107.115 99.7033 106.771 99.7678 106.334C99.8323 105.889 99.8753 105.33 99.8968 104.656L99.9505 103.097H103.594V108.043H104.346V110H103.691V108.699H99.2412V110H98.5963ZM99.8 108.043H102.863V103.753H100.606L100.574 104.721C100.552 105.387 100.506 105.946 100.434 106.398C100.37 106.842 100.284 107.197 100.176 107.463C100.076 107.721 99.9505 107.914 99.8 108.043Z" fill="#1E1E1E"/>
<path d="M105.003 107.086C105.003 106.735 105.103 106.434 105.303 106.183C105.504 105.925 105.78 105.728 106.131 105.592C106.489 105.448 106.901 105.377 107.367 105.377C107.639 105.377 107.922 105.398 108.216 105.441C108.51 105.484 108.771 105.549 109.001 105.635V105.162C109.001 104.688 108.861 104.312 108.581 104.033C108.302 103.753 107.915 103.613 107.421 103.613C107.12 103.613 106.822 103.671 106.529 103.785C106.242 103.893 105.941 104.054 105.626 104.269L105.346 103.753C105.712 103.502 106.07 103.316 106.421 103.194C106.772 103.065 107.13 103 107.496 103C108.184 103 108.728 103.198 109.129 103.592C109.531 103.986 109.731 104.531 109.731 105.226V107.817C109.731 107.918 109.753 107.993 109.796 108.043C109.839 108.086 109.907 108.111 110 108.118V108.699C109.921 108.706 109.853 108.713 109.796 108.721C109.738 108.728 109.695 108.728 109.667 108.721C109.488 108.713 109.352 108.656 109.258 108.548C109.165 108.441 109.115 108.326 109.108 108.204L109.097 107.796C108.846 108.118 108.52 108.369 108.119 108.548C107.718 108.721 107.31 108.807 106.894 108.807C106.536 108.807 106.21 108.731 105.916 108.581C105.629 108.423 105.404 108.215 105.239 107.957C105.081 107.692 105.003 107.402 105.003 107.086ZM108.753 107.516C108.832 107.416 108.893 107.319 108.936 107.226C108.979 107.133 109.001 107.05 109.001 106.979V106.162C108.757 106.068 108.503 105.997 108.237 105.946C107.98 105.896 107.718 105.871 107.453 105.871C106.93 105.871 106.507 105.975 106.185 106.183C105.862 106.391 105.701 106.674 105.701 107.032C105.701 107.24 105.755 107.437 105.862 107.624C105.97 107.803 106.127 107.954 106.335 108.075C106.543 108.19 106.787 108.247 107.066 108.247C107.417 108.247 107.743 108.179 108.044 108.043C108.352 107.907 108.589 107.731 108.753 107.516Z" fill="#1E1E1E"/>
<path d="M0 94.9725V81.6909H9.17088V83.5242H2.05839V87.2468H5.88112C7.3269 87.2468 8.41123 87.5959 9.13412 88.2943C9.85701 88.9802 10.2185 89.8906 10.2185 91.0255C10.2185 91.7862 10.0592 92.4658 9.74061 93.0645C9.4343 93.6506 8.96871 94.1182 8.34385 94.4674C7.73123 94.8041 6.9532 94.9725 6.00977 94.9725H0ZM2.05839 93.1393H5.7341C6.2977 93.1393 6.75104 93.0333 7.09411 92.8213C7.44942 92.6093 7.7006 92.3411 7.84763 92.0169C8.00691 91.6802 8.08655 91.331 8.08655 90.9693C8.08655 90.6077 8.01916 90.271 7.88438 89.9592C7.74961 89.6474 7.50456 89.398 7.14924 89.2109C6.80618 89.0114 6.32221 88.9116 5.69734 88.9116H2.05839V93.1393Z" fill="#1E1E1E"/>
<path d="M21.1005 93.1206V94.9725H12.1502V81.6909H20.9351V83.5429H14.2086V87.3216H20.0346V89.0613H14.2086V93.1206H21.1005Z" fill="#1E1E1E"/>
<path d="M31.6965 94.9725V83.5429H27.3408L27.2673 86.0121C27.1937 87.7955 27.0528 89.2733 26.8445 90.4456C26.6363 91.6054 26.3361 92.522 25.944 93.1954C25.5519 93.8564 25.0618 94.3303 24.4737 94.6171C23.8856 94.8914 23.1811 95.0286 22.3602 95.0286V93.1954C22.8135 93.1954 23.2117 93.0894 23.5548 92.8774C23.8979 92.6529 24.1858 92.2601 24.4186 91.6989C24.6636 91.1377 24.8535 90.352 24.9883 89.3419C25.1353 88.3193 25.2334 87.016 25.2824 85.4322L25.411 81.6909H33.7732V94.9725H31.6965Z" fill="#1E1E1E"/>
<path d="M36.7207 94.9725V81.6909H38.7791V86.592H41.7013C42.657 86.592 43.4595 86.7666 44.1089 87.1158C44.7705 87.4525 45.2667 87.9327 45.5975 88.5562C45.9406 89.1798 46.1121 89.9155 46.1121 90.7636C46.1121 91.5617 45.9467 92.285 45.6159 92.9335C45.2851 93.5695 44.8011 94.0684 44.164 94.43C43.5269 94.7917 42.7489 94.9725 41.8299 94.9725H36.7207ZM38.7791 93.2328H41.5359C42.1117 93.2328 42.5835 93.1206 42.951 92.8961C43.3186 92.6716 43.582 92.3723 43.7413 91.9982C43.9128 91.6116 43.9986 91.2 43.9986 90.7636C43.9986 90.3396 43.919 89.9405 43.7597 89.5663C43.6126 89.1922 43.3553 88.8929 42.9878 88.6684C42.6325 88.444 42.1424 88.3317 41.5175 88.3317H38.7791V93.2328ZM48.1705 94.9725V81.7097H50.2473V94.9725H48.1705Z" fill="#1E1E1E"/>
<path d="M53.2527 94.9725V81.6909H55.3111V92.0169L62.2766 81.6909H64.2063V94.9725H62.1479V84.8149L55.256 94.9725H53.2527ZM58.7295 80.793C58.0679 80.793 57.4982 80.687 57.0203 80.475C56.5425 80.2506 56.1811 79.9512 55.936 79.5771C55.691 79.1905 55.5684 78.7665 55.5684 78.3051H57.0571C57.0571 78.6418 57.1796 78.9473 57.4247 79.2217C57.682 79.4961 58.1169 79.6332 58.7295 79.6332C59.3299 79.6332 59.7587 79.5085 60.016 79.2591C60.2733 79.0097 60.402 78.6917 60.402 78.3051H61.8907C61.8907 78.7665 61.7681 79.1905 61.5231 79.5771C61.278 79.9512 60.9166 80.2506 60.4387 80.475C59.9732 80.687 59.4034 80.793 58.7295 80.793Z" fill="#1E1E1E"/>
<path d="M80.2452 94.9725V83.5429H75.8895L75.816 86.0121C75.7424 87.7955 75.6015 89.2733 75.3933 90.4456C75.185 91.6054 74.8848 92.522 74.4927 93.1954C74.1006 93.8564 73.6105 94.3303 73.0224 94.6171C72.4343 94.8914 71.7298 95.0286 70.9089 95.0286V93.1954C71.3622 93.1954 71.7604 93.0894 72.1035 92.8774C72.4466 92.6529 72.7345 92.2601 72.9673 91.6989C73.2123 91.1377 73.4023 90.352 73.537 89.3419C73.6841 88.3193 73.7821 87.016 73.8311 85.4322L73.9597 81.6909H82.322V94.9725H80.2452Z" fill="#1E1E1E"/>
<path d="M85.3613 94.9725V81.6909H87.4197V92.0169L94.3852 81.6909H96.3149V94.9725H94.2565V84.8149L87.3646 94.9725H85.3613Z" fill="#1E1E1E"/>
<path d="M98.5134 88.2382C98.5134 87.4276 98.6543 86.6357 98.9361 85.8625C99.2179 85.0768 99.6284 84.366 100.167 83.7299C100.719 83.0815 101.387 82.5701 102.171 82.196C102.955 81.8094 103.843 81.6161 104.836 81.6161C106.012 81.6161 107.029 81.8905 107.886 82.4392C108.744 82.9755 109.381 83.6676 109.798 84.5156L108.181 85.6193C107.935 85.083 107.623 84.659 107.243 84.3473C106.876 84.0355 106.471 83.8172 106.03 83.6925C105.601 83.5678 105.179 83.5055 104.762 83.5055C104.076 83.5055 103.476 83.6489 102.961 83.9357C102.446 84.2101 102.011 84.578 101.656 85.0394C101.313 85.5008 101.05 86.0184 100.866 86.592C100.694 87.1657 100.609 87.7394 100.609 88.313C100.609 88.949 100.713 89.5664 100.921 90.165C101.129 90.7511 101.417 91.2749 101.785 91.7363C102.165 92.1852 102.612 92.5407 103.126 92.8026C103.641 93.0645 104.205 93.1954 104.817 93.1954C105.234 93.1954 105.669 93.1206 106.122 92.9709C106.575 92.8213 106.992 92.5906 107.372 92.2788C107.764 91.9545 108.07 91.5305 108.291 91.0067L110 91.9982C109.73 92.6591 109.308 93.2203 108.732 93.6818C108.168 94.1432 107.531 94.4924 106.821 94.7293C106.122 94.9663 105.43 95.0847 104.744 95.0847C103.825 95.0847 102.986 94.8914 102.226 94.5048C101.466 94.1058 100.811 93.582 100.259 92.9335C99.708 92.2725 99.2792 91.5368 98.9729 90.7261C98.6666 89.9031 98.5134 89.0737 98.5134 88.2382Z" fill="#1E1E1E"/>
<path fill-rule="evenodd" clip-rule="evenodd" d="M59.5661 0.874057C49.4011 5.49351 41.9658 10.2488 34.4 16.9693C22.9298 27.158 11.9628 41.5678 3.11007 58.0817C2.23002 59.7234 0 64.1547 0 64.2618C0 64.289 4.07422 64.3002 9.05385 64.2867L18.1077 64.2621L18.7958 62.2341C20.1819 58.1491 21.761 54.5815 24.5871 49.1491C28.6638 41.3134 32.5499 34.9672 37.9514 27.3246C44.5216 18.0285 51.1092 11.7825 60.1053 6.31984L61.4597 5.49747L61.996 5.80224C64.8689 7.43463 70.1697 10.992 73.9193 13.8039C85.5979 22.5618 93.6161 31.8212 100.847 44.9001C103.342 49.4119 106.973 57.2667 109.234 63.042C109.649 64.1022 109.854 64.4359 109.999 64.2893C110.023 64.2647 109.674 63.1403 109.222 61.7908C103.957 46.0597 97.5695 33.989 89.1494 23.8571C84.0701 17.745 77.1372 11.3044 69.2488 5.36961C66.4279 3.24733 61.772 -0.00925082 61.5719 1.97495e-05C61.5213 0.00243396 60.6186 0.395754 59.5661 0.874057Z" fill="url(#paint0_angular_435_386)"/>
<path d="M40.4104 5.72246C40.1863 5.95969 39.8964 6.36826 39.7778 6.61867C39.646 6.86907 39.3428 7.35671 39.1056 7.71255C38.618 8.42425 38.4203 9.21503 38.2885 11.047L38.1962 12.3386L37.4714 12.7735C37.076 13.0107 36.3775 13.3797 35.9294 13.6038C33.5307 14.7636 31.0925 16.4769 30.4335 17.4653C30.1831 17.8476 29.5637 18.5988 29.0629 19.1391C28.0613 20.2198 27.5473 21.0765 26.2293 23.7783C25.5308 25.228 25.2804 25.9397 24.9641 27.2708C24.7532 28.2066 24.5423 29.2478 24.5028 29.6168C24.3183 31.0402 24.885 35.8375 25.4122 37.3399C25.5308 37.6431 25.8866 38.4997 26.2161 39.2378C26.6642 40.2526 26.9015 40.6216 27.1651 40.7402C27.4945 40.8984 27.4814 40.9116 26.3084 41.531C24.7269 42.3745 24.1206 42.8094 23.1585 43.811C21.6429 45.3662 20.7203 46.9477 19.6791 49.7681C18.6643 52.5094 18.5193 53.208 18.0976 57.3858C17.5968 62.3018 17.7681 63.9755 19.1388 67.3758C20.549 70.842 22.0646 73.5965 23.0794 74.5191C23.343 74.7695 23.8175 75.2044 24.0943 75.613C24.4237 75.8107 24.1602 75.613 24.5555 75.8765C24.8191 76.0083 24.7928 76.127 24.9509 76.2719C25.1222 76.4169 25.8735 76.9045 25.8735 76.865C25.8867 76.8386 25.9394 75.7711 26.0053 73.9656C26.0712 72.1468 26.4534 70.328 26.5324 69.8272C26.6774 68.8651 27.6 67.2704 28.8388 64.6082C29.7219 62.6971 29.5901 61.9723 29.1683 61.6691C28.9706 61.5242 28.7861 61.4978 28.6543 61.5769C28.5094 61.656 28.3644 61.5901 28.1403 61.3528C27.9163 61.1156 27.7581 61.0497 27.5209 61.1024C27.3496 61.142 27.1782 61.1288 27.1387 61.0761C26.9937 60.8388 28.1403 54.9608 28.4039 54.6313C28.4962 54.5127 28.6543 54.5259 29.0761 54.6841C29.8668 54.9872 31.3166 54.9476 32.1732 54.6182C32.5686 54.4732 33.6362 53.8933 34.5455 53.3529C36.4038 52.259 37.8667 51.6264 38.8552 51.5078C39.2242 51.4551 40.3181 51.376 41.2934 51.3101L43.0726 51.1915L43.8897 51.6923C44.9177 52.3118 45.9457 52.5358 47.4614 52.4567L48.6475 52.404L48.9902 53.1157C49.9786 55.1322 52.6804 56.9773 55.8039 57.7549C56.8978 58.0316 56.9506 58.058 57.4777 58.7433C59.3097 61.0893 63.1581 62.539 66.4002 62.1041C66.9801 62.025 67.929 61.9196 68.5089 61.88C69.5501 61.8141 69.5764 61.8141 70.7758 62.4072C71.4347 62.7235 72.3705 63.0662 72.8449 63.1584C73.4907 63.277 73.7148 63.3693 73.7148 63.5406C73.7148 64.1337 74.0179 64.7663 74.4133 65.0035C74.9537 65.333 75.3754 65.333 76.2452 65.0035C76.6274 64.8586 77.1414 64.74 77.3918 64.74C77.6554 64.74 78.1694 64.5554 78.6702 64.2787C79.5665 63.7779 80.0277 63.712 80.7394 64.0151C81.6356 64.3841 81.9256 64.2919 83.1381 63.277C83.7575 62.763 84.2979 62.1963 84.3374 62.025C84.3901 61.8273 84.9832 61.3397 86.143 60.5489C87.1051 59.9031 87.9749 59.2573 88.0935 59.1255C88.2122 58.9805 88.8843 57.7944 89.5828 56.4765C90.6899 54.4205 90.9798 53.722 91.7047 51.4814L92.535 48.8851L92.4427 45.9066L92.3373 42.928L91.5202 40.6216C90.848 38.6974 90.6372 38.2493 90.2682 37.9198C90.0309 37.6958 89.3588 36.7864 88.7789 35.877C88.054 34.7436 87.3423 33.8342 86.512 32.9907C85.3786 31.8309 85.2863 31.765 84.8909 31.8441C84.4956 31.9232 84.4033 31.8573 83.3358 30.737L82.2155 29.5509L78.7889 28.2857C75.0196 26.8886 74.7164 26.8096 70.5517 26.3878L67.8499 26.0979L65.2141 26.3878C63.7643 26.5328 62.3937 26.6909 62.1564 26.7305C61.9324 26.77 60.8648 27.284 59.7841 27.8639C58.7166 28.4438 57.4382 29.116 56.9506 29.3664C56.4629 29.6036 55.8567 29.9858 55.6063 30.2099C55.1318 30.6316 52.3773 31.7914 51.8633 31.7914C51.4547 31.7914 48.1203 30.7502 47.9226 30.5525C47.8436 30.4734 47.6195 29.9199 47.4482 29.3137L47.1187 28.2329L47.9622 26.4142C48.4235 25.4257 48.9243 24.5163 49.0693 24.3845C49.2142 24.2659 49.8205 23.9101 50.4136 23.5938C51.2834 23.1193 51.8238 22.948 53.0494 22.6976C54.3806 22.4472 54.631 22.3549 54.9209 22.0254C55.1186 21.8146 55.3822 21.6432 55.514 21.6432C56.0016 21.6432 58.5848 20.9711 59.0593 20.7338C60.1532 20.1671 60.6276 19.7058 60.9176 18.9414C61.4843 17.4522 61.2207 16.9382 59.8105 16.7668C59.2965 16.7009 58.5057 16.556 58.0313 16.4505C57.5568 16.3319 56.9374 16.2397 56.6342 16.2397C56.028 16.2397 54.8814 15.6861 54.0115 14.9876C53.7216 14.7504 53.2867 14.4604 53.0494 14.3418C52.8122 14.2232 52.2191 13.8278 51.7315 13.472C51.2439 13.1161 50.6771 12.7867 50.4531 12.7339C50.2422 12.6812 49.8468 12.5362 49.5964 12.4044C49.346 12.2858 48.8057 12.1145 48.4103 12.0222C47.3296 11.785 45.4713 11.1919 45.2472 11.0206C45.1418 10.9415 44.7332 10.8361 44.3378 10.7834C43.9425 10.7307 43.5075 10.5989 43.3494 10.4934C42.9804 10.243 42.3609 10.2562 41.8865 10.5462C41.6756 10.6779 41.3198 10.8361 41.0957 10.8888C40.8848 10.9415 40.6081 11.0074 40.4895 11.047C40.3181 11.0997 40.3049 10.9811 40.4104 10.1112C40.5158 9.32046 40.5026 9.07004 40.3445 8.83281C40.1863 8.5824 40.1731 8.46378 40.3181 8.1343L40.4895 7.73891L40.5026 8.16065C40.5026 8.79327 40.7135 8.68783 40.8717 7.96296C41.188 6.53958 41.2143 5.30072 40.9112 5.30072C40.8585 5.30072 40.6344 5.49841 40.4104 5.72246ZM48.1335 22.8821C47.5273 23.3038 47.3823 23.5147 46.3675 25.742C45.3922 27.8507 45.3131 28.4043 45.7744 29.7486C45.9194 30.1703 46.0248 30.5262 46.0116 30.5393C45.9853 30.5525 45.7085 30.6316 45.379 30.7239C45.0495 30.8161 44.6278 31.0138 44.4301 31.1456C44.2324 31.2906 43.8634 31.396 43.5339 31.396H42.9804L43.0726 30.368C43.1122 29.8145 43.2176 28.8524 43.2835 28.2329C43.3626 27.6135 43.4021 26.4405 43.3889 25.6234C43.3757 24.8063 43.4153 24.0814 43.4812 24.0155C43.5998 23.8969 48.0544 22.5921 48.4103 22.579C48.5157 22.5658 48.3971 22.7108 48.1335 22.8821ZM75.7576 63.422C75.7181 63.4879 75.6258 63.5538 75.5467 63.5538C75.4808 63.5538 75.4281 63.4879 75.4281 63.422C75.4281 63.3429 75.5204 63.2902 75.639 63.2902C75.7444 63.2902 75.7971 63.3429 75.7576 63.422Z" fill="white"/>
<path d="M40.9244 5.82787C40.3577 6.71089 40.0414 8.01565 40.0546 9.45221C40.0546 10.9547 40.1469 11.4291 40.4368 11.5477C40.5554 11.5873 41.0167 11.5346 41.4648 11.4291C42.4137 11.2051 43.9952 11.1787 44.9969 11.3632C45.4318 11.4423 45.7349 11.4555 45.814 11.3764C45.8931 11.2973 45.7349 10.7174 45.3791 9.83441C45.0364 8.95139 44.7728 8.00247 44.6806 7.31714C44.6015 6.71089 44.4829 6.22325 44.4433 6.22325C44.3906 6.22325 44.048 6.46048 43.6921 6.73725C43.1913 7.13263 42.9804 7.42258 42.8223 7.89704C42.7037 8.2397 42.4533 8.67462 42.2819 8.84596C42.0315 9.07001 41.9524 9.28088 41.9524 9.68944C41.9524 9.99257 41.8997 10.1771 41.847 10.098C41.6757 9.92667 41.2935 7.38304 41.2539 6.28915L41.2276 5.36659L40.9244 5.82787Z" fill="#DBE2F0"/>
<path d="M49.9258 15.4489C49.8072 15.5806 49.7281 15.7915 49.7808 15.9101C49.8731 16.1737 50.6506 16.5032 51.1778 16.5032C51.5073 16.5032 51.5732 16.4505 51.5732 16.1737C51.5732 15.9365 51.4282 15.7652 51.0065 15.5147C50.4134 15.4093 50.4134 15.4093 49.9258 15.4489Z" fill="#DBE2F0"/>
<path d="M52.1526 16.0419C52.1921 16.1474 52.2712 16.3187 52.3107 16.4241C52.3503 16.5428 52.258 16.635 52.0076 16.7009C51.3882 16.8591 51.9812 17.0436 52.7984 16.9513L53.51 16.8722L52.9565 16.3582C52.3898 15.8311 52.0076 15.6861 52.1526 16.0419Z" fill="#DBE2F0"/>
<path d="M60.4954 16.8591C60.3505 16.9909 60.39 17.1226 60.6009 17.2149C60.7327 17.2676 60.7986 17.2017 60.7986 17.0304C60.7986 16.7668 60.6536 16.6877 60.4954 16.8591Z" fill="#DBE2F0"/>
<path d="M60.799 17.6894C60.7858 18.401 59.7315 19.5872 58.7298 20.0089C57.1615 20.6811 55.7249 20.7733 50.1896 20.602C45.8008 20.457 44.7333 20.5229 43.2704 20.9974C42.3346 21.3137 40.5949 22.1572 40.1732 22.4998L39.9096 22.7239L40.1732 22.6316C40.3182 22.5789 40.8058 22.4867 41.2539 22.4076C42.73 22.1572 42.8882 22.5394 41.6625 23.3829C40.6345 24.0682 39.5406 25.0962 39.0398 25.8211C38.394 26.7568 37.4978 28.6415 37.1288 29.8803C36.8124 30.9347 36.7729 31.2905 36.7597 33.0434C36.7465 34.5986 36.7993 35.1916 36.9838 35.7979C37.2737 36.7205 37.7482 37.2608 38.1699 37.129C38.3281 37.0895 38.8289 36.9972 39.277 36.9445C39.7383 36.8918 40.1996 36.76 40.3445 36.6282C40.4895 36.4964 40.8058 36.4041 41.0958 36.4041C41.3725 36.4041 41.8206 36.3382 42.0842 36.2592C42.506 36.1274 42.7036 36.1537 43.389 36.391C43.8371 36.5359 44.2852 36.6677 44.3906 36.6677C44.5092 36.6677 44.9442 36.8127 45.3791 36.9972C45.814 37.1817 46.2885 37.3267 46.4466 37.3267C46.5916 37.3267 46.8947 37.4453 47.1056 37.6035C47.5273 37.8934 48.7266 38.3811 49.0693 38.3811C49.2406 38.3811 49.7546 38.6974 51.837 40.1076C52.3246 40.437 52.5223 40.5029 52.9836 40.4502C53.2999 40.4239 53.603 40.4634 53.7085 40.5425C53.8007 40.6347 54.2356 40.8456 54.6706 41.0169C55.6458 41.3991 57.3724 42.7698 57.3724 43.152C57.3724 43.4947 58.1104 44.18 58.4794 44.18C59.0066 44.18 59.2438 43.8769 59.2834 43.1652C59.3229 42.3217 59.6656 41.3201 60.0873 40.8193L60.43 40.4239L60.1664 40.951C59.5206 42.2822 59.2307 43.9032 59.4811 44.8126C59.6392 45.4452 60.2982 46.2624 60.7199 46.3678C60.8781 46.4073 61.7479 47.1849 62.6441 48.0943C63.738 49.175 65.0955 50.348 66.6638 51.5341C67.9686 52.5226 69.4315 53.6956 69.906 54.1437C70.3936 54.5918 71.0394 55.0926 71.3557 55.2507C71.672 55.4089 72.3178 55.8306 72.7923 56.1733C73.2667 56.516 74.3738 57.1222 75.2437 57.5308C76.6539 58.1634 77.0361 58.2688 78.4067 58.4665C79.2766 58.5719 80.0937 58.6378 80.2387 58.6115C80.3836 58.5719 81.2667 58.4665 82.1892 58.3611C83.125 58.2556 83.9816 58.0843 84.0871 57.992C84.2057 57.8998 84.5088 57.7548 84.7724 57.6757C85.1809 57.5439 85.2073 57.5176 84.9174 57.5044C83.8103 57.4649 81.8861 56.6741 80.1728 55.5802C77.8532 54.0909 76.3903 52.8389 75.6918 51.7318C75.2568 51.0465 75.1909 50.6247 75.5072 50.3612C75.6786 50.2162 75.8499 50.2557 76.5616 50.6116C77.2865 50.9674 77.3919 50.9938 77.2865 50.7829C77.1415 50.5193 75.9685 49.5045 75.4941 49.2409C75.3491 49.1487 74.1102 48.3711 72.7264 47.488C69.1416 45.1948 65.9785 43.6397 63.3031 42.8621C62.7627 42.7039 62.2356 42.4799 62.1565 42.3612C61.8665 42.0054 61.9588 41.0038 62.3278 40.2657C62.5123 39.8835 63.0263 39.1718 63.4744 38.6842C63.9225 38.1834 64.4102 37.643 64.5551 37.4585L64.8187 37.1422L64.4497 37.3794C64.0807 37.6035 64.0675 37.6035 64.0016 37.3399C63.9093 36.9577 63.7907 36.984 62.6178 37.5903C61.1548 38.3547 60.14 38.7105 58.3213 39.0927C55.5536 39.6726 53.9721 39.5277 51.8502 38.447C50.4532 37.7484 50.0314 37.3662 48.9375 35.732C48.015 34.3482 47.5405 33.4388 46.9606 31.989C46.5652 31.0006 46.5652 30.961 46.6838 29.6431C46.7761 28.7601 46.9606 27.8507 47.2506 26.9809C47.6459 25.8079 47.7645 25.5838 48.5158 24.7931C49.0825 24.1868 49.5306 23.831 49.8996 23.7124C50.6245 23.4488 53.9984 22.7371 55.3295 22.5526C55.8963 22.4735 56.8188 22.2758 57.3724 22.1045C57.9127 21.9331 58.5058 21.775 58.6903 21.7223C59.2834 21.5905 60.6277 20.6416 60.7067 20.2989C60.7595 20.1144 60.9308 19.9167 61.1021 19.8376C61.4053 19.6926 61.4184 19.6267 61.3921 18.5987C61.3789 17.9134 61.313 17.4917 61.2207 17.4521C61.1285 17.4258 61.0626 17.4785 61.0626 17.5839C61.0626 17.7157 61.0231 17.7025 60.9308 17.5576C60.8254 17.3994 60.799 17.4258 60.799 17.6894Z" fill="#DBE2F0"/>
<path d="M36.0213 18.1375C35.3096 18.4406 34.0839 19.1259 33.3195 19.6663C33.1086 19.8244 32.8055 20.0221 32.6605 20.1275C32.2124 20.4307 32.5683 20.5229 33.2536 20.2725C34.0707 19.9826 34.4925 20.0353 34.5452 20.4307C34.6111 20.8656 34.0839 21.4982 33.1086 22.144C32.1202 22.8161 32.3311 22.8557 33.5831 22.2494C34.9406 21.6036 35.4941 20.9051 35.4941 19.864C35.4941 19.3104 35.9422 18.7569 36.733 18.3351C37.8137 17.7684 37.2602 17.6103 36.0213 18.1375Z" fill="#DBE2F0"/>
<path d="M32.7927 24.5295C32.226 24.6745 31.3561 25.1489 30.8553 25.5838C30.6181 25.7815 30.2359 26.0451 30.025 26.1637C29.5769 26.3878 29.0893 26.8754 29.1947 26.994C29.2474 27.0336 29.511 26.915 29.7878 26.7304C30.4336 26.2955 31.1321 26.1506 31.2902 26.401C31.4616 26.6646 31.4352 27.2444 31.2243 28.0089C30.908 29.1555 30.8685 29.4191 31.0135 29.4191C31.0794 29.4191 31.1453 29.3532 31.1453 29.2873C31.1453 28.9841 32.4764 26.2033 32.9772 25.452C33.7021 24.3713 33.6889 24.3186 32.7927 24.5295Z" fill="#DBE2F0"/>
<path d="M30.6577 31.3564C30.605 31.5541 30.5522 32.5294 30.5522 33.5047C30.5522 34.9149 30.6313 35.5738 30.8817 36.6677C31.1849 37.9725 31.3826 38.3679 31.7779 38.3811C31.857 38.3811 31.9361 38.2361 31.9361 38.0648C31.9361 37.8934 32.0152 37.7221 32.1074 37.6825C32.226 37.643 32.1997 37.5244 32.0283 37.2476C31.1585 35.8638 30.8158 34.3877 30.9476 32.4899C31.0003 31.6332 30.9872 31.1324 30.8949 31.0797C30.8158 31.0269 30.7104 31.1587 30.6577 31.3564Z" fill="#DBE2F0"/>
<path d="M35.5602 47.5671C34.9407 47.6989 34.2291 48.0548 33.5437 48.5424C33.1483 48.8192 32.753 49.0564 32.6739 49.0564C32.5948 49.0564 32.1467 49.3068 31.6722 49.6231C31.1978 49.9394 30.3807 50.4798 29.8535 50.8224C28.4828 51.7318 27.758 52.628 27.323 53.9723C27.244 54.2491 26.8618 55.0003 26.4795 55.6329C25.3725 57.5044 23.4878 63.5933 23.8832 63.9887C23.9886 64.0941 25.2275 63.3429 26.3609 62.4862L26.7168 62.4203L27.2703 62.3808C27.468 62.5521 27.8239 63.1188 28.0611 63.646C28.7069 65.0562 29.0891 65.0694 29.8535 63.7251C30.0907 63.3165 30.3411 63.0266 30.4729 63.0266C30.8024 63.0266 31.2505 62.6707 31.5932 62.1304C31.8436 61.7482 32.1072 61.5637 32.8716 61.2605C33.4119 61.0497 34.3477 60.5884 34.9671 60.2326C35.5865 59.8767 36.3773 59.5077 36.7463 59.4022C37.9456 59.0332 42.0445 58.427 44.6672 58.2161C45.6161 58.137 45.9192 58.1766 47.5271 58.5983C49.0691 58.9937 49.6753 59.2309 51.7313 60.2721C53.0493 60.9442 54.3936 61.6955 54.7231 61.9459C55.4216 62.4862 57.9388 64.0941 58.8878 64.6213C60.3639 65.4252 62.9997 66.4928 64.0277 66.6905C64.6076 66.7959 65.3193 67.0068 65.6224 67.1386C65.9124 67.2704 66.4132 67.3758 66.7427 67.3758C67.059 67.3758 68.2188 67.4417 69.2995 67.5208C71.0787 67.6526 71.4873 67.6394 73.4115 67.4022C75.7706 67.099 76.9831 66.7168 79.4872 65.5043C80.4625 65.0299 80.8315 64.7795 80.8315 64.6081C80.8315 64.4368 81.0028 64.3314 81.5037 64.2127C81.8727 64.1205 82.3603 63.8833 82.5975 63.6987C82.8216 63.5011 83.1643 63.2375 83.3751 63.1188C83.5728 62.9871 83.731 62.8157 83.731 62.7235C83.731 62.5917 83.4674 62.6312 82.7821 62.8816C81.8595 63.2111 81.6882 63.2243 78.8546 63.2375C76.4296 63.2506 75.652 63.1979 74.5713 63.0002C73.8464 62.8553 72.6075 62.6839 71.8036 62.6312C69.3918 62.4335 67.4148 61.8273 63.9223 60.2062C61.919 59.2705 60.7592 58.8092 60.4561 58.8092C59.8762 58.8092 57.3194 57.2935 56.0015 56.1601C55.5006 55.7252 54.1168 54.7631 52.9307 54.025C51.7445 53.287 50.2684 52.2985 49.6622 51.8241C48.5946 51.007 47.5007 50.2425 46.4596 49.6231C46.196 49.4518 45.8138 49.32 45.6029 49.32C45.4052 49.32 44.7858 49.0828 44.2191 48.806C42.7298 48.0548 42.0708 47.8702 40.173 47.6594C38.5519 47.488 36.1401 47.4353 35.5602 47.5671Z" fill="#DBE2F0"/>
<path d="M40.0281 5.99924C38.5652 7.48852 38.0248 8.83281 37.9458 11.126L37.9062 12.3385L36.6015 12.8789C33.6493 14.1046 31.7382 15.383 29.6164 17.5971C26.2029 21.1292 24.2128 25.7288 23.936 30.6975C23.8042 33.2543 24.3051 36.246 25.4517 39.5409L25.9657 41.017L24.6082 42.2031C21.1947 45.1948 18.6643 49.2014 17.5176 53.4188C15.857 59.5077 17.6231 67.4549 21.0761 72.2786C21.8932 73.4252 23.6329 75.2703 24.8191 76.2719C25.399 76.7332 25.3067 76.6146 24.2787 75.4416C21.656 72.4763 19.6 69.3923 18.7433 65.8602C18.348 64.1732 18.3611 64.0941 19.2837 63.4352C19.7186 63.1321 20.3776 62.6181 20.7466 62.2886C21.5374 61.5901 21.4319 61.5373 22.7103 63.2111C23.1848 63.8306 23.6593 64.3446 23.7647 64.3446C23.8833 64.3446 24.6082 63.9624 25.3726 63.4879C26.1502 63.0134 26.8355 62.6312 26.9146 62.6312C26.9805 62.6312 27.3627 63.1452 27.7581 63.7647L28.4829 64.9113L27.9558 65.7679C27.3627 66.7432 26.7696 68.1402 26.4665 69.3C26.137 70.5916 25.6757 73.0825 25.8075 74.6904L25.9129 76.1401L26.0052 74.5322C26.2688 70.1303 27.7185 67.3231 30.6839 64.3973C34.8354 60.2853 40.7662 58.5324 46.486 59.7318C49.5437 60.3644 52.0741 61.4583 56.1597 63.9228C59.1251 65.7284 59.7445 66.0447 61.3392 66.6641C64.6341 67.9425 68.5088 68.417 72.265 68.0348C78.1035 67.4285 82.0441 65.702 85.6816 62.1831C89.6355 58.3479 92.2845 53.8142 93.0226 49.61C93.2993 48.068 93.2993 45.2081 93.0226 43.5738C91.4674 34.4536 82.8744 27.0336 72.6735 25.9924C69.7477 25.7025 65.7148 25.8738 63.0394 26.401C60.5616 26.9018 58.7165 27.6662 56.476 29.1423C54.0115 30.7634 52.8517 31.1983 50.9802 31.1983C49.8336 31.1851 49.5568 31.1456 48.911 30.8425C48.4102 30.6052 48.0939 30.368 47.9621 30.0912C47.2109 28.6547 48.6211 25.3598 50.5058 24.1605C51.3888 23.5938 52.2981 23.317 54.6836 22.8953C57.0691 22.4867 57.8203 22.2758 59.0592 21.6828C61.3524 20.602 63.0394 17.7685 61.9587 16.8327C61.6028 16.5164 61.4183 16.5032 58.0971 16.3055C56.7792 16.2265 56.8978 16.2792 58.8879 16.635L60.4826 16.9118L60.6407 17.5971C60.733 17.9793 60.9175 18.4538 61.0756 18.6515L61.3524 19.0205L60.9834 19.5609C59.8895 21.1292 57.9521 21.92 54.0905 22.3681C53.1153 22.4867 52.0477 22.6449 51.7182 22.7239C49.2537 23.3038 47.3032 25.2939 46.6837 27.8375C46.4201 28.9314 46.4597 31.3037 46.7496 32.1868C47.0396 33.0566 47.7381 34.2427 48.2125 34.6908L48.5552 35.0072L48.1466 34.1241C47.7776 33.3202 47.3032 31.541 47.4218 31.4223C47.4481 31.396 47.8172 31.541 48.2389 31.7387C48.8847 32.055 49.201 32.1209 50.3344 32.1604C52.6276 32.2527 54.3278 31.6596 57.2141 29.7486C60.3508 27.6926 63.0921 27.0468 68.6934 27.0468C74.7559 27.0468 78.3934 28.0748 82.8744 31.0665C87.619 34.2296 90.5448 38.5788 91.4542 43.8242C91.7705 45.6693 91.6519 48.951 91.1906 50.6907C90.4789 53.3529 89.3323 55.7911 87.7244 58.058C86.7096 59.4945 83.797 62.4072 82.4527 63.3429C76.4692 67.4944 68.1925 68.417 61.4051 65.702C59.8631 65.0958 59.2569 64.7531 56.3838 62.8816C53.5502 61.0497 52.3113 60.338 50.5716 59.5604C47.7249 58.282 45.3131 57.7153 42.7431 57.7285C37.524 57.7549 32.1995 60.2985 28.9442 64.3314L28.6806 64.6477L28.417 64.1996C28.2721 63.9492 27.9558 63.4088 27.7185 63.0003C27.4681 62.5785 27.1913 62.2095 27.0859 62.17C26.8619 62.0909 26.4665 62.3017 25.0299 63.277C24.3709 63.7251 23.8042 64.081 23.7515 64.081C23.6988 64.081 23.4088 63.6856 23.0925 63.1979C22.3809 62.1041 21.6955 61.3133 21.4319 61.3133C21.3397 61.3133 20.6148 61.88 19.8372 62.5653C18.5061 63.7383 18.427 63.791 18.3084 63.5143C18.2557 63.3561 18.1634 62.0118 18.1371 60.5225C18.058 57.4385 18.2689 55.6989 19.0201 53.3266C21.5506 45.3662 28.7992 39.3564 37.6822 37.8539C39.8304 37.4849 42.8485 37.4585 44.7859 37.788C47.7644 38.2888 51.4019 39.844 54.5782 41.9922C56.6342 43.3761 57.7149 44.2723 61.3261 47.6067C69.0624 54.7368 72.1068 56.9114 76.0211 58.0975C77.1282 58.4402 77.4313 58.6115 79.5795 58.6115C80.8448 58.6115 82.0441 58.4138 82.3209 58.3348C82.6899 58.2425 81.8991 58.3348 80.1067 58.3348C77.4577 58.3348 77.0359 58.0975 75.1776 57.3463C71.8828 56.0284 68.3902 53.2475 61.102 46.1306C59.6918 44.76 59.3755 44.3778 59.4809 44.2064C59.5468 44.0878 59.7182 43.5343 59.8763 42.9939C60.2849 41.5705 60.8648 40.4766 61.6819 39.5804C63.1053 38.0121 65.2799 36.8786 67.6785 36.4569C69.8136 36.0879 71.4478 36.4305 73.3193 37.643C74.2551 38.2625 74.3473 38.302 73.9124 37.8934C72.3441 36.4832 70.8943 35.877 68.8251 35.7847C65.873 35.6398 63.1053 36.7864 61.102 38.961C60.1663 39.9758 59.6391 40.9247 59.1119 42.5062C58.8879 43.152 58.6902 43.6924 58.6638 43.7188C58.6243 43.7583 58.2816 43.5079 57.8862 43.1652C54.8418 40.5557 50.9275 38.2625 47.6063 37.1554C41.2933 35.0335 33.4252 36.1274 27.6658 39.8967L27.3231 40.1208L26.9805 39.3564C25.6098 36.246 24.9377 32.5953 25.2144 29.6563C25.6494 24.9644 27.5867 20.8524 30.9475 17.4785C32.6081 15.8179 34.8222 14.2627 37.4054 12.9316C39.0265 12.1145 39.3428 11.9168 38.8288 12.075C38.5257 12.1672 38.5257 12.154 38.5257 11.1392C38.5257 9.07004 39.356 7.01406 40.8057 5.45889C41.0297 5.23483 41.1615 5.03714 41.0956 5.03714C41.0297 5.03714 40.5421 5.47206 40.0281 5.99924Z" fill="#1E1E1E"/>
<path d="M41.1352 6.05193C41.0429 6.40777 41.2538 8.5033 41.4383 9.12273C41.7019 9.93986 42.2423 11.0996 42.3741 11.0996C42.4531 11.0996 42.4663 10.9942 42.4136 10.8624C42.1895 10.2693 42.2027 9.86078 42.4795 9.0832C42.8485 8.08156 43.2571 7.42259 44.0478 6.5791C44.6277 5.93331 44.6409 5.92013 44.206 6.17054C43.547 6.55275 42.6772 7.58074 42.3345 8.39787C42.1764 8.79325 41.9918 9.12273 41.9391 9.12273C41.8601 9.12273 41.5306 7.68618 41.3065 6.35505C41.2406 5.90695 41.2011 5.82788 41.1352 6.05193Z" fill="#1E1E1E"/>
<path d="M44.6016 7.27764C44.5884 8.1343 44.8652 9.28091 45.3133 10.2957C45.4978 10.6779 45.6428 11.047 45.6428 11.1129C45.6428 11.1788 45.221 11.2315 44.6938 11.2315C44.1798 11.2315 43.7845 11.2578 43.8108 11.2842C43.8372 11.3105 44.6016 11.4687 45.4978 11.6137C48.2786 12.0881 50.8355 13.0634 53.4713 14.6713L54.5389 15.3171L53.8799 14.7108C51.7712 12.7735 49.6229 11.7059 47.132 11.3501L46.0645 11.2051L45.7218 10.4539C45.4187 9.76855 44.8256 7.73892 44.6807 6.88226C44.6543 6.69775 44.6148 6.88226 44.6016 7.27764Z" fill="#1E1E1E"/>
<path d="M49.7939 15.3566C49.0822 15.5938 48.6605 15.8311 48.9504 15.8442C49.0691 15.8442 49.5172 16.0551 49.9389 16.3055C50.9669 16.925 51.5995 17.0963 52.074 16.8722C52.5748 16.6218 52.5748 15.9233 52.074 15.5411C51.6259 15.2116 50.5188 15.1194 49.7939 15.3566ZM51.2832 16.0288C51.5731 16.1869 51.5995 16.2396 51.4282 16.3055C51.1514 16.411 50.2552 16.1737 49.9257 15.9101C49.6753 15.7124 49.7017 15.6993 50.2947 15.7652C50.6374 15.8047 51.0855 15.9233 51.2832 16.0288Z" fill="#1E1E1E"/>
<path d="M36.6801 17.6235C35.5862 17.9266 34.1892 18.6646 33.4116 19.35C33.0294 19.6795 32.7395 19.9826 32.7658 20.0221C32.8054 20.0485 33.2139 19.7981 33.6884 19.4686C36.2584 17.6762 38.1035 17.439 42.5977 18.3483C45.7739 18.9809 47.6849 19.2445 49.9254 19.3236C50.8744 19.35 51.4674 19.35 51.2434 19.3236C51.0325 19.2841 49.6355 19.0864 48.1462 18.8755C46.6569 18.6646 44.4033 18.2693 43.138 18.0057C40.3835 17.439 37.9058 17.294 36.6801 17.6235Z" fill="#909DB5"/>
<path d="M32.9637 24.2791C31.5271 24.7404 30.8682 25.1226 30.0247 26.0056C29.313 26.7436 29.4184 26.7436 30.3805 25.9792C30.7364 25.7025 31.3294 25.3334 31.6985 25.1621C32.3838 24.8326 33.3854 24.5163 33.3854 24.6086C33.3854 24.6481 33.1218 25.0698 32.8055 25.5575C30.9736 28.4042 30.1565 31.3828 30.4332 34.2295L30.5387 35.4157L30.6309 33.5047C30.7364 31.475 31.0263 30.1835 31.7907 28.3515C32.2652 27.2181 33.3195 25.452 33.939 24.7404C34.6638 23.9232 34.4134 23.8046 32.9637 24.2791Z" fill="#909DB5"/>
<path d="M36.5485 46.4337C36.1531 46.4996 35.2438 46.7632 34.5321 47.0004C29.7743 48.6347 26.3872 52.9575 24.608 59.6658C23.9754 62.0645 24.0544 62.104 24.832 59.7976C25.9918 56.3051 27.3361 53.8801 29.1812 51.9163C30.4069 50.5852 31.4481 49.8208 33.056 49.0432C34.7429 48.2129 36.1004 47.8702 37.9587 47.778C39.7116 47.6857 40.9636 47.8571 42.7429 48.4238C45.3392 49.2541 47.1184 50.2689 50.8746 53.0498C59.3489 59.3232 67.1248 62.618 74.5053 63.0793C75.731 63.1584 75.7046 63.1452 73.5168 62.763C68.8777 61.9459 65.6223 60.9047 61.8794 59.02C58.3078 57.2276 55.3687 55.3166 51.3227 52.1404C48.4759 49.9262 46.9076 48.8851 45.1811 48.0548C42.018 46.5391 39.1712 45.9988 36.5485 46.4337Z" fill="#909DB5"/>
</g>
<defs>
<radialGradient id="paint0_angular_435_386" cx="0" cy="0" r="1" gradientUnits="userSpaceOnUse" gradientTransform="translate(55 64.322) scale(56.2222 73.313)">
<stop offset="0.473958" stop-color="#356DDA"/>
<stop offset="0.760417" stop-color="#5388F0"/>
<stop offset="1" stop-color="#6F9FFF"/>
</radialGradient>
<clipPath id="clip0_435_386">
<rect width="110" height="110" fill="white"/>
</clipPath>
</defs>
</svg>
