<svg width="20" height="18" viewBox="0 0 20 18" fill="none" xmlns="http://www.w3.org/2000/svg">
<path fill-rule="evenodd" clip-rule="evenodd" d="M2.01337 7.65953C6.98272 5.46427 10.2964 4.01701 11.9544 3.31782C16.6884 1.32138 17.6721 0.974557 18.3132 0.963079C18.4542 0.960581 18.7695 0.996027 18.9737 1.16407C19.2767 1.41334 19.2784 1.95441 19.2448 2.31251C18.9882 5.04554 17.8782 11.6778 17.3135 14.7388C17.0745 16.034 16.604 16.4683 16.1486 16.5108C15.1587 16.6032 14.407 15.8475 13.4482 15.2103C11.9479 14.2131 11.1003 13.5923 9.64396 12.6193C7.96096 11.4947 9.052 10.8767 10.0111 9.86661C10.2622 9.60229 14.6237 5.57979 14.7081 5.21486C14.7187 5.16922 14.7285 4.99909 14.6288 4.90929C14.5291 4.81949 14.3821 4.85015 14.2759 4.87459C14.1254 4.90922 11.7287 6.51548 7.08567 9.6933C6.40534 10.167 5.78914 10.3978 5.23707 10.3857C4.62839 10.3724 3.45765 10.0368 2.58729 9.74988C1.51976 9.39805 0.671299 9.21198 0.745211 8.61447C0.783699 8.30315 1.2064 7.98489 2.01337 7.65953V7.65953Z" stroke="#1E1E1E" stroke-width="1.2"/>
</svg>
