<svg width="17" height="17" viewBox="0 0 17 17" fill="none" xmlns="http://www.w3.org/2000/svg">
<path d="M15.5916 12.0085L13.4983 9.91519C12.7507 9.16759 11.4798 9.46666 11.1807 10.4385C10.9565 11.1114 10.2089 11.4852 9.53601 11.3356C8.0408 10.9618 6.02227 9.01807 5.64847 7.4481C5.42418 6.77522 5.87275 6.02762 6.54559 5.80336C7.51748 5.50432 7.81652 4.23339 7.06892 3.48579L4.97562 1.39249C4.37754 0.869169 3.48041 0.869169 2.95709 1.39249L1.53664 2.81294C0.116186 4.30815 1.68616 8.27046 5.1999 11.7842C8.71365 15.298 12.676 16.9427 14.1712 15.4475L15.5916 14.027C16.115 13.4289 16.115 12.5318 15.5916 12.0085Z" stroke="#1E1E1E" stroke-width="1.2"/>
</svg>
