<svg width="20" height="20" viewBox="0 0 20 20" fill="none" xmlns="http://www.w3.org/2000/svg">
<path d="M10.0023 0.740738H9.99767C4.89234 0.740738 0.740723 4.89352 0.740723 10C0.740723 12.0255 1.3935 13.9028 2.50345 15.4271L1.34952 18.8669L4.90855 17.7292C6.37267 18.6991 8.11919 19.2593 10.0023 19.2593C15.1076 19.2593 19.2592 15.1053 19.2592 10C19.2592 4.89467 15.1076 0.740738 10.0023 0.740738ZM15.39 13.816C15.1666 14.4468 14.2801 14.9699 13.5729 15.1227C13.0891 15.2257 12.4572 15.3079 10.3298 14.4259C7.60878 13.2986 5.85646 10.5336 5.71989 10.3542C5.5891 10.1748 4.62035 8.89004 4.62035 7.56134C4.62035 6.23264 5.29512 5.58565 5.56711 5.30787C5.79049 5.07986 6.1597 4.97569 6.51387 4.97569C6.62845 4.97569 6.73146 4.98148 6.82406 4.98611C7.09605 4.99768 7.23262 5.01389 7.41202 5.44328C7.6354 5.98148 8.17938 7.31018 8.24419 7.44676C8.31017 7.58333 8.37614 7.76852 8.28355 7.94791C8.19674 8.1331 8.12035 8.21527 7.98378 8.37268C7.8472 8.53009 7.71757 8.65046 7.581 8.81944C7.456 8.96643 7.3148 9.12384 7.4722 9.39583C7.62961 9.66203 8.17359 10.5498 8.97452 11.2627C10.0081 12.1829 10.846 12.4768 11.1458 12.6018C11.3692 12.6944 11.6354 12.6725 11.7986 12.4988C12.0058 12.2755 12.2616 11.9051 12.522 11.5405C12.7072 11.2789 12.941 11.2465 13.1863 11.3391C13.4363 11.4259 14.7592 12.0799 15.0312 12.2153C15.3032 12.3518 15.4826 12.4167 15.5486 12.5312C15.6134 12.6458 15.6134 13.184 15.39 13.816Z" stroke="#1E1E1E" stroke-width="1.2"/>
</svg>
